<svg width="527" height="266" viewBox="0 0 527 266" fill="none" xmlns="http://www.w3.org/2000/svg">
<path d="M499.374 172.916V153.092L462.413 219.458L479.604 229.8L486.48 248.762L471.009 259.105L475.306 264.276H519.143L526.879 231.524L499.374 172.916Z" fill="white" fill-opacity="0.9"/>
<path d="M238.932 249.624L253.544 202.22L231.196 236.696L183.062 256.519H231.196L238.932 249.624Z" fill="white" fill-opacity="0.9"/>
<path fill-rule="evenodd" clip-rule="evenodd" d="M420.296 264.276L504.531 117.754L491.638 113.445V70.3502L501.093 106.55H502.812L497.654 62.5932L463.273 27.2555L387.633 0.536835L269.875 18.6366L233.775 10.8796L116.017 32.4269L40.3774 70.3502L0.838379 111.721L9.43382 121.202L24.0461 125.511V131.545L171.888 127.235L176.185 145.335L156.416 200.496L86.7927 257.381V262.552H131.489L159.854 255.657L222.601 226.353L266.437 162.573L288.785 113.445L278.471 164.297L370.442 172.054L403.105 106.55L383.335 172.054L387.633 249.624L352.392 259.967L356.689 266L420.296 264.276ZM95.3882 73.7978L93.6691 71.2121L98.8263 62.5932L93.6691 52.2504L83.3546 59.1456L81.6355 57.4218L92.8095 44.4934L103.984 49.6648L106.562 62.5932L95.3882 73.7978ZM38.6583 84.1405L42.956 82.4167L38.6583 77.2453L32.6415 84.1405H38.6583Z" fill="white" fill-opacity="0.9"/>
</svg>
