<svg width="2598" height="2427" viewBox="0 0 2598 2427" fill="none" xmlns="http://www.w3.org/2000/svg">
<rect width="2598" height="2427" fill="white"/>
<path d="M415 1154.5L231.5 1173.5L175 385.5L408 198L820 416L911 588L981 693L911 823.5L920.5 1089.5L988 1183.5L1011.5 1298L1060 1364L1047.5 1413.5H981L894.5 1361.5L727.5 1274.5L661.5 1198.5L570.5 1142L472.5 1131L415 1154.5Z" fill="#40BAFF"/>
<path d="M924.5 825.5L994.5 697L1093 715.5L1248.5 692L1403 707L1432 689L1498 778.5V846.5L1508.5 857V1051.5L1548 1085L1814.5 1084V1249.5L1507.5 1241L1431.5 1656L1151 1621L1113.5 1634L1061.5 1551.5L1019.5 1503L987.5 1427H1057.5L1074 1360L1025.5 1292.5L1002.5 1178L934.5 1084.5L924.5 825.5Z" fill="#5278FF"/>
<path d="M1152.5 1632.5L1119.5 1644.5L1155 1728.5L1071 2151H1750.5L1951 2078.5L1992.5 1952L2062.5 1895.5L2183.5 1585L2037.5 1551.5L2055.5 1271.5L1519 1254L1442 1670.5L1152.5 1632.5Z" fill="#FFC767"/>
<path d="M1639.5 952.367V887.367H1649.5L1657 911.867H1732.5C1736.4 902.297 1739 901.867 1748.5 900.867V890.867H1981.5V904.367C1981.5 904.367 1963.86 906.788 1964 916.867C1964.05 920.555 1963.97 927.973 1967 931.867C1972.13 938.468 1981.5 938.867 1981.5 938.867V949.367L1748.5 947.867V940.867C1738.29 941.329 1734.71 938.947 1732.5 929.367H1657L1649.5 952.367H1639.5Z" stroke="#AA4F3B" stroke-width="6"/>
<path d="M1828.5 1250.5V1085.5V1072L1549.5 1073L1522 1047.5V849L1510 839V772H1660V761.5H1831L1847.5 751H1992.5V708.5H2127V916H2388.5L2372 1039.5L2245.5 1122L2204 1172.5V1262L1828.5 1250.5Z" fill="#E19863"/>
<path d="M1650 753V764H1536H1502.5L1482 736.5L1510.5 691L1508.5 624.5L1553.5 418L1577 294.5L1643.5 246.5L1719.5 241V334.5L1785 452H1844L1878.5 426L1924 306L1958 274H2189.5L2231 529.5L2272.5 522.5L2333 648L2289 662L2358 790.5L2387.5 903H2140.5V698H1981V740.5H1841L1823 753H1650Z" fill="#BF8DFF"/>
<path d="M2261.5 563.867L2267 574.867L2261.5 577.367L2271.5 594.867L2265.5 598.367L2278.5 619.867L2282.5 617.367L2290.5 632.367L2295.5 629.367L2301.5 636.367L2308.5 630.867L2304 624.367L2308.5 621.367L2293.5 594.867L2299.5 591.367L2282.5 560.367L2274.5 563.867L2271.5 558.867L2261.5 563.867Z" fill="#8A38F2"/>
<path fill-rule="evenodd" clip-rule="evenodd" d="M2034 289.867H2130V304.867V331.867H2053V362.867H2036V329.867H2041V304.867H2034V289.867Z" fill="#8A38F2"/>
<rect x="2143" y="301.867" width="28" height="33" fill="#8A38F2"/>
<path fill-rule="evenodd" clip-rule="evenodd" d="M2180 355.867H2155V369.867V383.867H2173V369.867H2180V355.867Z" fill="#8A38F2"/>
<path fill-rule="evenodd" clip-rule="evenodd" d="M2082 355.867H2151V438.867H2082H2056H2034V387.867H2056V400.867H2082V355.867Z" fill="#8A38F2"/>
<path fill-rule="evenodd" clip-rule="evenodd" d="M1953 324.867H2020V365.867H2027V379.867H1970V404.867H1966V419.867H1970V442.867H1912V419.867H1931V404.867V375.867H1942V365.867H1953V324.867Z" fill="#8A38F2"/>
<rect x="1870" y="482.867" width="114" height="74" fill="#8A38F2"/>
<rect x="1813" y="487.867" width="44" height="52" fill="#8A38F2"/>
<path fill-rule="evenodd" clip-rule="evenodd" d="M2213 533.867H2172V634.867H2176V646.867H2156V693.867H2232V658.867H2239V646.867H2232H2202V634.867H2213V533.867Z" fill="#8A38F2"/>
<path fill-rule="evenodd" clip-rule="evenodd" d="M2020 579.867H2095V586.867H2113V613.867V664.867H2064V613.867H2020H1964V586.867H2020V579.867Z" fill="#8A38F2"/>
<path fill-rule="evenodd" clip-rule="evenodd" d="M2171 791.867H2153V885.867H2171V877.867H2190V873.867H2202V859.867H2206V833.867H2202H2190V791.867H2171Z" fill="#8A38F2"/>
<path fill-rule="evenodd" clip-rule="evenodd" d="M2212 699.867H2140V713.867H2146V723.867H2151V733.867H2162V740.867H2190V733.867H2212V723.867V719.867V713.867V709.867V699.867Z" fill="#8A38F2"/>
<path fill-rule="evenodd" clip-rule="evenodd" d="M2307 738.867H2194V745.867H2184V753.867H2176V780.867H2197V765.867H2236V791.867V813.867H2225V823.867V840.867V858.867V868.867H2279V878.867H2313V885.867H2347V878.867V868.867V858.867H2344V823.867H2339V813.867H2337V791.867H2322V764.867H2299V760.867H2307V738.867Z" fill="#8A38F2"/>
<path fill-rule="evenodd" clip-rule="evenodd" d="M1810 565.867H1852V579.867H1878V608.867H1865V618.867H1786V608.867V579.867H1810V565.867Z" fill="#8A38F2"/>
<path fill-rule="evenodd" clip-rule="evenodd" d="M1922 629.867H1946V702.867H1957V720.867H1946H1926H1922H1895V691.867H1922V629.867Z" fill="#8A38F2"/>
<path fill-rule="evenodd" clip-rule="evenodd" d="M1809 632.867H1784V711.867H1805H1809H1815V722.867H1853V715.867H1874V641.867H1847V688.867H1809V632.867Z" fill="#8A38F2"/>
<path d="M1638.5 290.867V280.867V280.367H1643.5V281.867H1659V293.867H1656.5V292.367H1640V290.867H1638.5Z" fill="#8A38F2"/>
<path d="M1637.5 294.867V300.867H1635.5V304.867H1637.5V306.367H1652V307.867H1656V304.867H1657.5V297.867H1654.5V296.367H1640V294.867H1637.5Z" fill="#8A38F2"/>
<path d="M1634.5 321.367V310.867H1652V312.367H1656V315.367H1654.5V322.867H1649V321.367H1634.5Z" fill="#8A38F2"/>
<path d="M1633 335.367V325.867V325.367H1647.5V326.867H1653V336.867H1644.5V335.367H1633Z" fill="#8A38F2"/>
<path d="M1600.5 316.867V308.367V307.367H1603V308.867H1615.5V310.867H1628V313.867H1627V322.367H1625.5V331.367H1624L1624.5 335.367H1615V333.367H1602V331.367H1597.5V326.867H1599V316.867H1600.5Z" fill="#8A38F2"/>
<path d="M1605 339.367L1589 335.367V344.367H1581L1568.5 413.867H1567.5V421.367H1571.5V422.867H1576V417.367H1577.5V414.867H1579H1588L1605 339.367Z" fill="#8A38F2"/>
<path d="M1579 430.867L1567.5 426.867L1558.5 462.867L1619 490.367L1632.5 460.867L1616 452.867L1610 464.867L1576 448.867L1579 430.867Z" fill="#8A38F2"/>
<path d="M1666.5 436.867L1651 428.867L1634 455.367L1651 464.867L1649 470.367L1664.5 476.367L1669 465.867L1673 468.367L1681.5 448.867L1664.5 440.867L1666.5 436.867Z" fill="#8A38F2"/>
<path d="M1606.5 528.867L1605.5 504.367H1616V516.867H1624V526.867H1620.5V528.867H1606.5Z" fill="#8A38F2"/>
<path d="M1626 516.867V485.367H1627V483.867H1630V485.367H1634.5V486.867H1637V488.367H1640V489.867H1643V491.367H1646V492.867H1650.5V494.367H1652V496.867H1650.5V499.867H1649V502.867H1647.5V504.367H1637.5V505.867H1634V508.867H1636V513.367H1644.5V514.367H1647.5V526.367H1641.5V527.367H1637.5V533.367H1638.5V534.867H1647.5V536.367H1649V542.367H1650.5V547.867H1638.5V552.367H1635.5V553.367H1628.5V537.867H1627.5V516.867H1626Z" fill="#8A38F2"/>
<path d="M1692 488.367L1682.5 477.367L1693.9 467.867L1703 479.867L1692 488.367Z" fill="#8A38F2"/>
<path d="M1689.5 491.367L1678 481.367L1669 492.867L1680 501.367L1689.5 491.367Z" fill="#8A38F2"/>
<path d="M1658.5 514.367L1665.5 499.867L1680 506.367L1672 519.367L1658.5 514.367Z" fill="#8A38F2"/>
<path d="M1657.5 534.867V519.367L1672 521.867V534.867H1657.5Z" fill="#8A38F2"/>
<path fill-rule="evenodd" clip-rule="evenodd" d="M1654 565.867H1623V601.867H1630V603.867H1636V604.867H1641V606.867H1647V607.867H1654V618.867H1701V601.867V565.867H1654Z" fill="#8A38F2"/>
<path d="M1631 625.867L1575 616.367V663.867L1631 673.867V625.867Z" fill="#8A38F2"/>
<path d="M1696 629.367H1641.5L1636.5 653.867C1653.38 655.868 1660.98 660.432 1670 676.867H1696V629.367Z" fill="#8A38F2"/>
<path d="M1728 699.367L1672.5 686.367C1668.37 699.11 1663.4 704.515 1648 709.867V742.367H1708C1720.66 729.935 1724.93 720.442 1728 699.367Z" fill="#8A38F2"/>
<path d="M1621 684.867H1592L1586 721.867H1566C1563.63 707.666 1550.39 705.114 1514 706.367L1510.5 737.867H1525V750.367H1548.5C1559.39 746.123 1563.72 742.359 1568.5 733.367H1582L1632 744.367L1639.5 708.367C1628.18 704.472 1624.18 699.261 1621 684.867Z" fill="#8A38F2"/>
<path fill-rule="evenodd" clip-rule="evenodd" d="M1768 519.867H1714V600.867H1691V675.867H1714H1768V600.867V519.867Z" fill="#8A38F2"/>
<path d="M1902 1767.37H1889.5C1895.66 1738.67 1906.49 1733.56 1935.5 1738.87L1928 1751.37C1914.72 1746.55 1908.91 1749.63 1902 1767.37Z" stroke="#D8931F" stroke-width="6"/>
<path d="M2069 1811.37C2061.1 1849.21 2053.18 1869.74 2024 1903.37C2010.26 1913.53 2001.89 1917.84 1984.5 1921.87C1969.09 1926.49 1963.29 1934.18 1958.5 1957.87C1961.53 2014.15 1955.21 2039.87 1927 2073.37C1909.27 2063.75 1901.99 2054.48 1897 2026.37C1892.63 2002.27 1887.27 1990.82 1872 1974.37L1879 1751.87C1880.4 1736.53 1883.81 1729.7 1897 1722.37H1977C1992.23 1728.2 1997.5 1734.71 2001.5 1751.87C1991.2 1781.01 1987.99 1798.25 1989 1831.37C1994.88 1848.73 2001.62 1852.84 2019 1851.37C2038.57 1821.54 2049.33 1812.65 2069 1811.37Z" stroke="#D8931F" stroke-width="6"/>
<path d="M2048 1606.87V1636.37H2041.5V1626.87L2020.5 1619.87L1995.5 1681.37L1989.5 1678.37L1986 1686.37L2008.5 1696.87L2003.5 1707.87L2016 1714.37L2013 1721.37L2026 1725.87L2037 1700.37L2026 1692.87L2041.5 1660.87L2057.5 1664.37L2062.5 1652.87L2138 1660.87L2149 1619.87L2048 1606.87Z" fill="#D8931F"/>
<path d="M2033 1714.37L2070 1655.37L2093.5 1666.37L2091 1670.37L2102 1679.37L2118 1658.87L2137 1670.37L2115 1702.37L2120.5 1706.37L2110 1723.87L2104.5 1720.87L2081.5 1756.37L2063 1744.87L2070 1734.87L2057.5 1727.37L2055 1730.87L2033 1714.37Z" fill="#D8931F"/>
<path d="M2042 1821.87L1999 1798.37L2035.5 1734.87L2077.5 1759.87L2042 1821.87Z" fill="#D8931F"/>
<path d="M1523.5 1584.87L1476 1578.87L1465.5 1658.37L1511.5 1667.37L1523.5 1584.87Z" fill="#D8931F"/>
<path fill-rule="evenodd" clip-rule="evenodd" d="M1851 1278.87H1845V1325.87H1867V1312.87H1911V1320.87H1947V1312.87H1963V1320.87H2006V1312.87V1278.87H1963H1947H1911H1867H1851Z" fill="#D8931F"/>
<path fill-rule="evenodd" clip-rule="evenodd" d="M2003 1328.87H1968V1346.87H1957V1437.87H1930V1361.87H1891V1437.87H1865V1346.87H1845V1437.87V1466.87H1865H1886V1480.87H1891H1901V1534.87H1926V1480.87H1930V1466.87H1957H1968V1475.87H1953V1497.87H1932V1532.87H1953V1543.87H1947V1539.87H1907V1581.87H1947V1585.87H1959V1553.87H2020V1475.87H1988V1466.87H2003H2011V1437.87H2003V1346.87V1328.87Z" fill="#D8931F"/>
<path fill-rule="evenodd" clip-rule="evenodd" d="M1702 1273.87H1669V1287.87H1658V1328.87V1437.87H1637V1386.87V1374.87H1546V1386.87H1530V1452.87H1546H1600V1453.87H1603V1464.87H1637V1453.87H1658V1466.87V1475.87H1689V1466.87H1693V1464.87H1738H1752H1776V1328.87H1824V1287.87H1766V1278.87H1741V1287.87H1702V1273.87ZM1693 1328.87V1351.87H1738V1328.87H1702H1693ZM1738 1439.87H1693V1381.87H1738V1394.87H1715V1424.87H1738V1439.87Z" fill="#D8931F"/>
<path fill-rule="evenodd" clip-rule="evenodd" d="M1612 1258.87H1589V1260.87V1286.87H1584V1266.87H1561V1286.87V1291.87V1347.87V1352.87V1358.87H1584V1352.87H1589V1364.87H1612H1637V1352.87H1647V1331.87H1650H1655V1279.87H1650V1265.87H1647V1260.87H1637H1625H1612V1258.87ZM1589 1347.87V1291.87H1584V1347.87H1589ZM1559 1270.87H1519V1327.87H1513V1358.87H1519H1549H1559V1270.87Z" fill="#D8931F"/>
<rect x="1504" y="1482.87" width="168" height="89" fill="#D8931F"/>
<rect x="1675" y="1482.87" width="107" height="89" fill="#D8931F"/>
<path d="M1784.5 1471.87V1456.87H1835V1555.37H1821.5V1561.37H1823V1582.37H1825V1598.87H1820V1595.87H1819V1582.37H1817.5V1570.87H1816V1557.87H1814.5V1549.37H1810.5V1547.37H1792.5V1492.37H1794V1479.37H1790V1487.87H1780.5V1479.87H1769V1471.87H1784.5Z" fill="#D8931F"/>
<path d="M1839.5 1498.87V1476.87H1880.5V1498.87H1874V1502.87H1880.5V1528.87H1872.5V1532.37H1879V1543.37H1872.5V1548.37H1880.5V1570.87H1872.5V1579.87H1846.5V1570.87H1839.5V1548.37H1848V1528.87H1839.5V1502.87H1846.5V1498.87H1839.5Z" fill="#D8931F"/>
<rect x="1551" y="1583.87" width="46" height="77" fill="#D8931F"/>
<path d="M1609 1656.37V1576.87H1727L1714 1587.87V1608.37H1669V1616.87C1656.81 1627.21 1652.57 1635.77 1650 1656.37H1609Z" fill="#D8931F"/>
<path fill-rule="evenodd" clip-rule="evenodd" d="M1765 1576.87H1776H1783H1796V1585.87H1799V1613.87H1796H1783V1622.87H1763V1613.87H1755V1636.87H1863V1646.87H1869V1656.87H1863H1818V1691.87H1850V1736.87H1818H1816H1805H1799H1790V1755.87H1874V1775.87H1844V1857.87H1823V1853.87H1789V1856.87V1857.87V1888.87H1771V1857.87H1710H1705V1869.87H1687V1857.87H1668V1869.87H1650V1857.87H1631V1872.87H1615V1843.87H1585V1821.87H1615V1775.87H1545V1789.87V1807.87V1821.87H1573V1843.87H1562V1862.87H1479V1826.87H1510V1821.87H1511V1798.87H1464V1758.87H1515V1789.87H1527V1775.87V1751.87H1607V1723.87V1699.87H1679V1691.87H1758V1706.87H1799V1656.87H1755H1736H1735H1721V1651.87H1709V1660.87H1694V1623.87H1709V1635.87H1721V1623.87H1735V1613.87H1721V1585.87H1745V1576.87H1763H1765ZM1823 1821.87V1775.87H1790H1789V1821.87H1823ZM1771 1821.87H1710V1775.87H1771V1821.87ZM1692 1821.87H1657H1644H1631V1775.87H1679H1692V1821.87ZM1679 1751.87H1631V1723.87H1679V1736.87V1751.87Z" fill="#D8931F"/>
<path d="M1999.5 1594.87H1842V1618.87H1864L1877.5 1629.87V1659.87H1924.5C1943.65 1656.91 1951.35 1655.25 1967 1643.87C1990.48 1627.77 1994.13 1616.92 1999.5 1594.87Z" fill="#D8931F"/>
<path fill-rule="evenodd" clip-rule="evenodd" d="M1938 1706.87H2001V1711.87H2005V1724.87H2001V1731.87H1962V1742.87H1945V1731.87H1938V1724.87V1711.87V1706.87Z" fill="#D8931F"/>
<path fill-rule="evenodd" clip-rule="evenodd" d="M1805 2004.87H1787V2024.87H1759V2114.87H1787V2104.87H1790V2117.87H1822V2109.87H1829H1842V2091.87H1856H1859V2069.87H1856V2061.87H1859V2039.87H1856V2031.87H1829V2009.87H1805V2004.87Z" fill="#D8931F"/>
<rect x="1764" y="1908.87" width="28" height="70" fill="#D8931F"/>
<path fill-rule="evenodd" clip-rule="evenodd" d="M1865 1903.87H1846V1924.87H1798V1993.87H1854V1952.87H1865V1903.87Z" fill="#D8931F"/>
<path fill-rule="evenodd" clip-rule="evenodd" d="M1609 2004.87H1625H1635H1651H1713H1729H1739H1755V2033.87H1739V2070.87H1729V2096.87H1713V2129.87H1609V2127.87H1590H1577V2117.87H1562V2084.87H1577V2061.87H1590V2038.87H1609V2004.87Z" fill="#D8931F"/>
<rect x="1581" y="1850.87" width="29" height="38" fill="#D8931F"/>
<rect x="1577" y="1918.87" width="37" height="78" fill="#D8931F"/>
<rect x="1479" y="1999.87" width="71" height="62" fill="#D8931F"/>
<path fill-rule="evenodd" clip-rule="evenodd" d="M1464 1869.87H1528V1873.87H1567V1893.87H1582V1903.87H1567H1518H1503V1899.87H1464V1869.87Z" fill="#D8931F"/>
<path d="M1625.5 1996.37V1881.87L1633.5 1875.87H1672V1887.37H1751V1875.87H1764V1906.87H1751V1996.37H1625.5Z" stroke="#D8931F" stroke-width="6"/>
<path fill-rule="evenodd" clip-rule="evenodd" d="M1410 1698.87H1219V1746.87V1756.87H1183V1808.87H1292V1799.87H1303V1808.87H1363V1773.87H1330V1746.87H1410V1698.87Z" fill="#D8931F"/>
<path fill-rule="evenodd" clip-rule="evenodd" d="M1235 1831.87H1164V1908.87H1129V2037.87H1164H1200H1235V1831.87Z" fill="#D8931F"/>
<path fill-rule="evenodd" clip-rule="evenodd" d="M1304 1846.87H1257V1850.87H1242V1981.87H1248V2017.87H1288V1990.87H1297V1935.87H1288V1869.87H1304V1846.87Z" fill="#D8931F"/>
<path fill-rule="evenodd" clip-rule="evenodd" d="M1398 1846.87H1319V1857.87H1312V1875.87H1353V1872.87H1371V1881.87V1933.87V1942.87H1390V1933.87H1403V1857.87H1398V1846.87Z" fill="#D8931F"/>
<path fill-rule="evenodd" clip-rule="evenodd" d="M1300 2027.87H1371V2063.87H1345V2097.87H1331H1290H1276V2079.87H1290V2037.87H1300V2027.87Z" fill="#D8931F"/>
<rect x="1176" y="2086.87" width="97" height="47" fill="#D8931F"/>
<rect x="1303" y="1883.87" width="52" height="127" rx="17" stroke="#D8931F" stroke-width="6"/>
<rect x="1312" y="1894.87" width="33" height="107" rx="16.5" stroke="#D8931F" stroke-width="6"/>
<path d="M462.5 492.867H483.5C482.63 467.694 489.244 458.469 514.5 451.367L507.5 431.367C474.558 438.118 464.12 450.929 462.5 492.867Z" stroke="#1770D9" stroke-width="4"/>
<path d="M444.5 343.869L382 312.369C401.348 261.488 421.034 255.447 470 279.869L444.5 343.869Z" stroke="#1770D9" stroke-width="4"/>
<path d="M413 320.367L425.5 294.867L448 307.367L439.5 330.867L413 320.367Z" stroke="#1770D9" stroke-width="4"/>
<path d="M384 335.867L389.5 322.867L437.5 349.367H447.5L463 315.367L476.5 319.367L463 355.867L433 363.867L384 335.867Z" stroke="#1770D9" stroke-width="4"/>
<path d="M619 617.867L605.5 592.867L619 585.367L634 611.367L619 617.867Z" fill="#1770D9"/>
<path d="M642.5 631.867L634 615.867L642.5 611.367L652 627.367L642.5 631.867Z" fill="#1770D9"/>
<path d="M613 572.867L605.5 559.867L614.5 555.867L623 568.367L613 572.867Z" fill="#1770D9"/>
<path d="M628 520.367L619 540.867L630.5 544.867L625.5 559.867L645 568.367L648.5 559.867L637 555.867L639.5 550.367L645 552.867L648.5 544.867L669 552.867L682.5 527.367L672 522.867L663 540.867L654.5 536.367V530.867L628 520.367Z" fill="#1770D9"/>
<path d="M336 593.367L307 491.867L326.5 477.867V425.867L369.5 389.867L410.5 425.867L398.5 464.867L426.5 567.367L403 572.367L426.5 643.867L403 649.867L382.5 579.867L336 593.367Z" fill="#1770D9"/>
<path d="M228 614.367L222 532.867L280.5 522.867L269.5 607.867L228 614.367Z" fill="#1770D9"/>
<path d="M472 861.867V760.867V745.867H405C370.658 754.611 358.555 764.606 349.5 791.367L299 789.367V811.367H349.5V802.867C363.479 821.96 374.077 830.07 397.5 840.367L441 861.867H472Z" fill="#1770D9"/>
<path d="M398.5 680.867L372 665.867L364.5 677.867L391 693.867L398.5 680.867Z" fill="#1770D9"/>
<path fill-rule="evenodd" clip-rule="evenodd" d="M354 686.867H366V705.867H361V714.867H375V704.867H393V714.867V723.867V733.867H354V714.867H356V705.867H354V711.867H345V721.867H333V733.867H354V750.867H327V744.867H321V716.867H333V702.867H342V692.867H354V686.867Z" fill="#1770D9"/>
<path d="M705 693.867L690.5 669.867L711.5 661.867L726.5 678.367L754.5 692.367V700.867L773.5 708.867L766 721.367L753 714.367L748.5 721.367L731.5 714.367L734 707.867L705 693.867Z" fill="#1770D9"/>
<path d="M864.5 752.867L822 670.867L893.5 639.367L932.5 718.367L864.5 752.867Z" fill="#1770D9"/>
<path d="M788 647.867L766 625.367L786 613.367L809 641.367V704.867H794.5V709.867H788V698.367H776.5V667.367H788V647.867Z" fill="#1770D9"/>
<path d="M934 1284.37V1233.37H954.5V1239.87H967V1233.37H978V1291.37H967V1316.87H943V1309.37H886V1297.37H892.5V1291.37H954.5V1284.37H934Z" fill="#1770D9"/>
<path fill-rule="evenodd" clip-rule="evenodd" d="M779 1197.87H914V1226.87V1231.87V1279.87H886V1298.87H787V1279.87H770V1226.87H779V1197.87Z" fill="#1770D9"/>
<path d="M786 1131.37H743V1156.37H772L779 1162.37V1195.87H886.5V1165.87L924.5 1153.87V1125.87L886.5 1129.87L868.5 1150.87H857.5V1146.87C838.172 1136.35 827.327 1135.62 808 1146.87V1150.87H802L786 1131.37Z" fill="#1770D9"/>
<path d="M684.5 1184.37V1162.37H717.5L761.5 1200.37V1233.87H735V1214.87L703 1184.37H684.5Z" fill="#1770D9"/>
<path d="M838 1074.87V1050.37H853L890.5 1092.87H907V1119.37H880L838 1074.87Z" fill="#1770D9"/>
<path d="M758.5 1121.87V1092.37H776L810.5 1051.87H826.5V1072.87L786 1121.87H758.5Z" fill="#1770D9"/>
<path d="M643.5 1162.87V1137.37H662L704 1090.87H749.5V1119.37H714.5L678 1162.87H643.5Z" fill="#1770D9"/>
<path d="M565 1087.37L572.5 1059.87L624.5 1065.37L622.5 1072.87L676 1069.87L681.5 1095.37L612.5 1103.87V1092.37L565 1087.37Z" fill="#1770D9"/>
<path d="M560 1088.37H507L502 1110.87H546V1116.87L611 1138.37V1116.87L560 1100.37V1088.37Z" fill="#1770D9"/>
<rect x="793" y="986.867" width="103" height="32" fill="#1770D9"/>
<path d="M791.5 976.367V926.367H815.5V918.867H852.5V877.867H802.5V857.867H815.5V842.867H879V875.867H900V950.867H876V964.367H824L815.5 976.367H791.5Z" fill="#1770D9"/>
<path d="M721 1030.37V962.867L730 960.867L721 920.367L741 915.867L751.5 971.367H741V1035.37L721 1030.37Z" fill="#1770D9"/>
<path fill-rule="evenodd" clip-rule="evenodd" d="M660 788.867H639V804.867H550V831.867H566V837.867H515V858.867H536V866.867H591V858.867H609V831.867H639H644V842.867V852.867V877.867H638V909.867H651V934.867H641V959.867H627V997.867H705V959.867H671V934.867H669V905.867H681V877.867H676V842.867H655V831.867H660V788.867Z" fill="#1770D9"/>
<path fill-rule="evenodd" clip-rule="evenodd" d="M522 872.867H537H617H632V887.867H617V915.867V957.867H579V915.867H522V872.867Z" fill="#1770D9"/>
<path fill-rule="evenodd" clip-rule="evenodd" d="M601 670.867H522V686.867H515V702.867H522H553V757.867H537V796.867H585V757.867H569V702.867H591H601V670.867Z" fill="#1770D9"/>
<path fill-rule="evenodd" clip-rule="evenodd" d="M515 587.867H486V670.867H515V654.867H587V613.867H515V587.867Z" fill="#1770D9"/>
<path fill-rule="evenodd" clip-rule="evenodd" d="M627 728.367L651 713.867L712.893 803.143L723 797.367L737 759.867L745 756.867V752.867L739 750.867L745 730.867L762 736.367L739 803.367L727 801.367L717.555 809.868L733.5 832.867L723 860.867L627 728.367Z" fill="#1770D9"/>
<path d="M738.5 729.367L680 708.367L671 731.367L732.5 750.367L738.5 729.367Z" fill="#1770D9"/>
<path d="M798 794.867L806.5 759.867L876 778.867C887.795 794.947 885.226 802.013 865.5 811.367L798 794.867Z" fill="#1770D9"/>
<path fill-rule="evenodd" clip-rule="evenodd" d="M751 610.867H722V633.867H730V647.867H751V633.867V629.867V610.867Z" fill="#1770D9"/>
<path fill-rule="evenodd" clip-rule="evenodd" d="M382 997.867H319V1021.87V1053.87H273V1134.87H401V1102.87V1053.87V1021.87H382V997.867Z" fill="#1770D9"/>
<path fill-rule="evenodd" clip-rule="evenodd" d="M476 911.867H502V929.867H492V935.867H469V951.867H465V952.867H460V978.867H466V991.867H479V1001.87H487H502V994.867H508V981.867H485V986.867H473V981.867V962.867H485H519V976.867H529V994.867V1011.87H508H502V1006.87H487V1014.87H469V1006.87V1004.87H466H460V992.867H438V949.867H449V937.867H460V929.867H466V917.867H476V911.867Z" fill="#1770D9"/>
<path fill-rule="evenodd" clip-rule="evenodd" d="M525 1050.87H507V1059.87H468V1081.87H515V1065.87H525V1050.87Z" fill="#1770D9"/>
<path fill-rule="evenodd" clip-rule="evenodd" d="M542 1015.87H505V1021.87H486V1038.87H523V1032.87H542V1015.87Z" fill="#1770D9"/>
<path fill-rule="evenodd" clip-rule="evenodd" d="M431 1001.87H406V1018.87H425V1023.87H438V1032.87H446V1041.87H438V1042.87H428V1033.87H406V1050.87H417V1059.87H428V1066.87H455V1058.87H463V1041.87H456V1032.87H463V1015.87H450V1006.87H431V1001.87Z" fill="#1770D9"/>
<rect x="264" y="835.867" width="87" height="115" stroke="#1770D9" stroke-width="4"/>
<rect x="803.666" y="580.974" width="52.622" height="53.8351" transform="rotate(-25.49 803.666 580.974)" stroke="#1770D9" stroke-width="4"/>
<rect x="743.666" y="555.179" width="90.0768" height="42.6606" transform="rotate(-25.49 743.666 555.179)" stroke="#1770D9" stroke-width="4"/>
<rect x="718.666" y="503.298" width="90.0768" height="42.6606" transform="rotate(-25.49 718.666 503.298)" stroke="#1770D9" stroke-width="4"/>
<rect x="644.666" y="588.298" width="26.6575" height="68.7929" transform="rotate(-25.49 644.666 588.298)" stroke="#1770D9" stroke-width="4"/>
<rect x="410" y="826.867" width="30" height="46" fill="#1770D9"/>
<rect x="376" y="826.867" width="20" height="46" fill="#1770D9"/>
<path fill-rule="evenodd" clip-rule="evenodd" d="M454 690.867H432V703.867H427V697.867H406V712.867H416V718.867H456V703.867H454V690.867Z" fill="#1770D9"/>
<rect x="357" y="603.648" width="23" height="60" transform="rotate(-19.7744 357 603.648)" fill="#1770D9"/>
<path fill-rule="evenodd" clip-rule="evenodd" d="M577 989.867H557V1033.87H534V1053.87H598V1033.87H577V989.867Z" fill="#1770D9"/>
<path fill-rule="evenodd" clip-rule="evenodd" d="M384 929.867H353V957.867H320V995.867H384V982.867V957.867V929.867Z" fill="#1770D9"/>
<rect x="236.986" y="429.867" width="29" height="85" transform="rotate(14.2941 236.986 429.867)" fill="#1770D9"/>
<rect x="222.986" y="362.867" width="21.746" height="32.6415" transform="rotate(14.2941 222.986 362.867)" fill="#1770D9"/>
<rect x="262.986" y="375.867" width="21.746" height="32.6415" transform="rotate(42.3411 262.986 375.867)" fill="#1770D9"/>
<rect x="210.373" y="393.867" width="51.2132" height="10.1545" transform="rotate(31.948 210.373 393.867)" fill="#1770D9"/>
<rect x="587" y="398.867" width="32" height="42" fill="#1770D9"/>
<circle cx="725.5" cy="450.367" r="30.5" fill="#1770D9"/>
<rect x="1081" y="1446.87" width="354" height="111" fill="#173DC2"/>
<path d="M1346 954.367V787.867H1472.5V803.367H1489V954.367H1346Z" stroke="#173DC2" stroke-width="6"/>
<path d="M1377 871.117V802.367H1402M1377 871.117V939.867H1402M1377 871.117H1456M1456 871.117V939.867H1402M1456 871.117V802.367H1430.5M1402 802.367V813.867H1430.5V802.367M1402 802.367H1430.5M1402 939.867V930.867H1430.5V942.367" stroke="#173DC2" stroke-width="6"/>
<path fill-rule="evenodd" clip-rule="evenodd" d="M1751 1142.87H1775V1235.87H1751V1228.87H1723V1213.87H1751V1168.87H1723V1153.87H1751V1142.87Z" fill="#173DC2"/>
<path fill-rule="evenodd" clip-rule="evenodd" d="M1529 1121.87H1588V1142.87H1604V1156.87H1682V1178.87H1660V1208.87H1683V1224.87H1618V1214.87V1208.87V1178.87H1604V1214.87V1239.87H1545V1214.87H1506V1142.87H1529V1121.87Z" fill="#173DC2"/>
<path fill-rule="evenodd" clip-rule="evenodd" d="M1323 1271.87H1402V1275.87H1423V1283.87H1428V1305.87H1423V1313.87H1402V1369.87H1425V1379.87H1428V1401.87H1425V1409.87H1332V1401.87V1379.87H1323V1271.87Z" fill="#173DC2"/>
<path fill-rule="evenodd" clip-rule="evenodd" d="M1470 1115.87H1409V1121.87H1341V1166.87H1409V1176.87H1470V1115.87Z" fill="#173DC2"/>
<rect x="1477" y="1124.87" width="16" height="11" fill="#173DC2"/>
<path fill-rule="evenodd" clip-rule="evenodd" d="M1464 1193.87H1428V1204.87H1404V1211.87H1370V1251.87H1370.5V1264.87L1394 1251.87H1404H1417V1263.87H1439V1251.87H1464V1211.87V1204.87V1193.87Z" fill="#173DC2"/>
<rect x="1347" y="953.867" width="142" height="136" fill="#173DC2"/>
<rect x="1489" y="984" width="27" height="87" fill="#173DC2"/>
<path d="M1171.5 1244.87V1156.37C1181.62 1153.69 1184.24 1150.03 1184.5 1140.37H1310C1311.79 1149.27 1314.36 1152.59 1321 1156.37V1240.87C1312.93 1242.36 1310.63 1245.66 1310 1255.37H1184.5C1183.62 1246.52 1180.91 1244.18 1171.5 1244.87Z" fill="#173DC2"/>
<rect x="1144" y="1278.87" width="45" height="135" fill="#173DC2"/>
<rect x="1188" y="1269.87" width="123" height="143" stroke="#173DC2" stroke-width="6"/>
<path fill-rule="evenodd" clip-rule="evenodd" d="M1156 1133.87H1118V1140.87H1113V1176.87H1134V1214.87V1227.87V1252.87H1156H1160V1227.87H1156V1214.87H1163V1176.87V1140.87H1156V1133.87Z" fill="#173DC2"/>
<rect x="1005" y="829.867" width="123" height="254" rx="61.5" stroke="#173DC2" stroke-width="6"/>
<rect x="1027" y="842.867" width="81" height="224" rx="40.5" stroke="#173DC2" stroke-width="6"/>
<path d="M1000 857.867L965.5 846.867C938.981 933.37 941.374 983.523 960 1074.37L1000 1063.37C981.206 981.787 978.569 936.602 1000 857.867Z" stroke="#173DC2" stroke-width="6"/>
<mask id="path-136-inside-1" fill="white">
<path fill-rule="evenodd" clip-rule="evenodd" d="M1545.65 1097.87H1802V1117.87H1541.42C1536.34 1125.69 1527.52 1130.87 1517.5 1130.87C1507.48 1130.87 1498.66 1125.69 1493.58 1117.87H1131V1097.87H1489.35C1491.51 1084.27 1503.29 1073.87 1517.5 1073.87C1531.71 1073.87 1543.49 1084.27 1545.65 1097.87Z"/>
</mask>
<path d="M1545.65 1097.87L1539.72 1098.81L1540.52 1103.87H1545.65V1097.87ZM1802 1097.87H1808V1091.87H1802V1097.87ZM1802 1117.87V1123.87H1808V1117.87H1802ZM1541.42 1117.87V1111.87H1538.16L1536.39 1114.6L1541.42 1117.87ZM1493.58 1117.87L1498.61 1114.6L1496.84 1111.87H1493.58V1117.87ZM1131 1117.87H1125V1123.87H1131V1117.87ZM1131 1097.87V1091.87H1125V1097.87H1131ZM1489.35 1097.87V1103.87H1494.48L1495.28 1098.81L1489.35 1097.87ZM1545.65 1103.87H1802V1091.87H1545.65V1103.87ZM1796 1097.87V1117.87H1808V1097.87H1796ZM1802 1111.87H1541.42V1123.87H1802V1111.87ZM1536.39 1114.6C1532.37 1120.79 1525.41 1124.87 1517.5 1124.87V1136.87C1529.64 1136.87 1540.31 1130.59 1546.45 1121.13L1536.39 1114.6ZM1517.5 1124.87C1509.59 1124.87 1502.63 1120.79 1498.61 1114.6L1488.55 1121.13C1494.69 1130.59 1505.36 1136.87 1517.5 1136.87V1124.87ZM1493.58 1111.87H1131V1123.87H1493.58V1111.87ZM1137 1117.87V1097.87H1125V1117.87H1137ZM1131 1103.87H1489.35V1091.87H1131V1103.87ZM1495.28 1098.81C1496.98 1088.07 1506.29 1079.87 1517.5 1079.87V1067.87C1500.29 1067.87 1486.04 1080.46 1483.43 1096.93L1495.28 1098.81ZM1517.5 1079.87C1528.71 1079.87 1538.02 1088.07 1539.72 1098.81L1551.57 1096.93C1548.96 1080.46 1534.71 1067.87 1517.5 1067.87V1079.87Z" fill="#173DC2" mask="url(#path-136-inside-1)"/>
<path fill-rule="evenodd" clip-rule="evenodd" d="M1039 1309.87H1131V1318.87V1328.87V1336.87V1365.87H1070V1336.87H1043V1328.87H1039V1309.87Z" fill="#173DC2"/>
<rect x="1038" y="1180.87" width="15" height="33" stroke="#173DC2" stroke-width="4"/>
<rect x="1086" y="1180.87" width="15" height="33" stroke="#173DC2" stroke-width="4"/>
<rect x="1062" y="1180.87" width="15" height="33" stroke="#173DC2" stroke-width="4"/>
<rect x="1045" y="1263.87" width="15" height="33" stroke="#173DC2" stroke-width="4"/>
<rect x="1093" y="1263.87" width="15" height="33" stroke="#173DC2" stroke-width="4"/>
<rect x="1069" y="1263.87" width="15" height="33" stroke="#173DC2" stroke-width="4"/>
<path d="M1100 1173.87V1154.87H1029.5L1016.5 1165.37V1232.87L1028 1243.37H1083V1223.37H1031V1173.87H1100Z" stroke="#173DC2" stroke-width="4"/>
<mask id="path-146-inside-2" fill="white">
<path fill-rule="evenodd" clip-rule="evenodd" d="M1117 1176.87V1180.87V1218.87V1222.87H1113H1094V1223.87H1113H1121V1218.87V1180.87V1174.87H1109V1176.87H1113H1117ZM1125 1223.87V1227.87H1121H1113H1094H1090V1223.87V1222.87V1218.87H1094H1109H1113V1214.87V1184.87V1180.87H1109H1105V1176.87V1174.87V1170.87H1109H1121H1125V1174.87V1180.87V1218.87V1223.87Z"/>
</mask>
<path d="M1117 1176.87H1121V1172.87H1117V1176.87ZM1117 1222.87V1226.87H1121V1222.87H1117ZM1094 1222.87V1218.87H1090V1222.87H1094ZM1094 1223.87H1090V1227.87H1094V1223.87ZM1121 1223.87V1227.87H1125V1223.87H1121ZM1121 1174.87H1125V1170.87H1121V1174.87ZM1109 1174.87V1170.87H1105V1174.87H1109ZM1109 1176.87H1105V1180.87H1109V1176.87ZM1125 1227.87V1231.87H1129V1227.87H1125ZM1090 1227.87H1086V1231.87H1090V1227.87ZM1090 1218.87V1214.87H1086V1218.87H1090ZM1113 1218.87V1222.87H1117V1218.87H1113ZM1113 1180.87H1117V1176.87H1113V1180.87ZM1105 1180.87H1101V1184.87H1105V1180.87ZM1105 1170.87V1166.87H1101V1170.87H1105ZM1125 1170.87H1129V1166.87H1125V1170.87ZM1121 1180.87V1176.87H1113V1180.87H1121ZM1121 1218.87V1180.87H1113V1218.87H1121ZM1121 1222.87V1218.87H1113V1222.87H1121ZM1113 1226.87H1117V1218.87H1113V1226.87ZM1094 1226.87H1113V1218.87H1094V1226.87ZM1098 1223.87V1222.87H1090V1223.87H1098ZM1113 1219.87H1094V1227.87H1113V1219.87ZM1121 1219.87H1113V1227.87H1121V1219.87ZM1117 1218.87V1223.87H1125V1218.87H1117ZM1117 1180.87V1218.87H1125V1180.87H1117ZM1117 1174.87V1180.87H1125V1174.87H1117ZM1109 1178.87H1121V1170.87H1109V1178.87ZM1113 1176.87V1174.87H1105V1176.87H1113ZM1113 1172.87H1109V1180.87H1113V1172.87ZM1117 1172.87H1113V1180.87H1117V1172.87ZM1129 1227.87V1223.87H1121V1227.87H1129ZM1121 1231.87H1125V1223.87H1121V1231.87ZM1113 1231.87H1121V1223.87H1113V1231.87ZM1094 1231.87H1113V1223.87H1094V1231.87ZM1090 1231.87H1094V1223.87H1090V1231.87ZM1086 1223.87V1227.87H1094V1223.87H1086ZM1086 1222.87V1223.87H1094V1222.87H1086ZM1086 1218.87V1222.87H1094V1218.87H1086ZM1094 1214.87H1090V1222.87H1094V1214.87ZM1109 1214.87H1094V1222.87H1109V1214.87ZM1113 1214.87H1109V1222.87H1113V1214.87ZM1109 1214.87V1218.87H1117V1214.87H1109ZM1109 1184.87V1214.87H1117V1184.87H1109ZM1109 1180.87V1184.87H1117V1180.87H1109ZM1109 1184.87H1113V1176.87H1109V1184.87ZM1105 1184.87H1109V1176.87H1105V1184.87ZM1101 1176.87V1180.87H1109V1176.87H1101ZM1101 1174.87V1176.87H1109V1174.87H1101ZM1101 1170.87V1174.87H1109V1170.87H1101ZM1109 1166.87H1105V1174.87H1109V1166.87ZM1121 1166.87H1109V1174.87H1121V1166.87ZM1125 1166.87H1121V1174.87H1125V1166.87ZM1129 1174.87V1170.87H1121V1174.87H1129ZM1129 1180.87V1174.87H1121V1180.87H1129ZM1129 1218.87V1180.87H1121V1218.87H1129ZM1129 1223.87V1218.87H1121V1223.87H1129Z" fill="#173DC2" mask="url(#path-146-inside-2)"/>
<rect x="1032" y="1257.87" width="89" height="46" stroke="#173DC2" stroke-width="4"/>
<circle cx="1227.5" cy="938.367" r="30.5" fill="#173DC2"/>
<path fill-rule="evenodd" clip-rule="evenodd" d="M2109 726.867H2016V736.867H2020V745.867H2011V798.867H2039V763.867H2081V798.867H2113V745.867H2106V736.867H2109V726.867Z" fill="#AA4F3B"/>
<rect x="2007" y="946.867" width="109" height="109" stroke="#AA4F3B" stroke-width="6"/>
<rect x="2007" y="946.867" width="109" height="109" stroke="#AA4F3B" stroke-width="6"/>
<rect x="2007" y="946.867" width="109" height="109" stroke="#AA4F3B" stroke-width="6"/>
<rect x="2007" y="811.867" width="109" height="99" stroke="#AA4F3B" stroke-width="6"/>
<rect x="2007" y="811.867" width="109" height="99" stroke="#AA4F3B" stroke-width="6"/>
<rect x="2007" y="811.867" width="109" height="99" stroke="#AA4F3B" stroke-width="6"/>
<path fill-rule="evenodd" clip-rule="evenodd" d="M2289 975.867H2336V1001.87H2320V1020.87V1033.87V1045.87H2285V1033.87H2195V1054.87V1077.87H2164H2155V1054.87H2164V1005.87H2152V982.867H2195V996.867H2289V975.867Z" fill="#AA4F3B"/>
<path d="M2379 940.367H2349.5L2341.5 990.367L2349.5 997.867L2321.5 1050.37L2281.5 1052.37V1036.37H2198V1084.87H2156.5V1130.87H2219L2221 1087.87H2215V1075.37H2229V1082.37L2254.5 1080.37V1072.37L2262.5 1075.37L2278 1066.37L2281.5 1059.87L2296.5 1063.87L2329 1059.87L2371 997.867L2379 940.367Z" fill="#AA4F3B"/>
<path d="M2283 1069.87L2246.5 1093.37L2252.5 1102.37L2290 1079.87L2283 1069.87Z" fill="#AA4F3B"/>
<rect x="2154" y="1139" width="41" height="116" fill="#AA4F3B"/>
<path fill-rule="evenodd" clip-rule="evenodd" d="M2042 1064.87H2113V1121.87H2106V1127.87V1130.87V1167.87H2117V1184.87H2099V1224.87H2084H2078H2037V1209.87V1194.87V1181.87H2052V1194.87H2078V1184.87V1172.87H2032H2001V1164.87V1145.87V1140.87H2019V1145.87H2032V1130.87H2014V1095.87H2042V1064.87Z" fill="#AA4F3B"/>
<circle cx="2000.5" cy="1213.37" r="14.5" stroke="#AA4F3B" stroke-width="4"/>
<path fill-rule="evenodd" clip-rule="evenodd" d="M1978 1111.87H1928V1191.87H1919V1168.87V1112.87H1833V1168.87H1898V1233.87H1919H1978V1198.87V1191.87V1111.87Z" fill="#AA4F3B"/>
<path fill-rule="evenodd" clip-rule="evenodd" d="M1824 1172.87H1856V1196.87H1875H1895V1231.87H1875V1243.87H1835V1217.87H1824V1172.87Z" fill="#AA4F3B"/>
<path fill-rule="evenodd" clip-rule="evenodd" d="M1962 759H1910V787H1932V806H1914V809H1913V811H1908V828H1913V831H1914V835H1932V853H1910V876H1962V853H1958V831V828V811V809V787H1962V759Z" fill="#AA4F3B"/>
<path fill-rule="evenodd" clip-rule="evenodd" d="M1886 759H1870V782H1863H1794V788H1793H1781H1773H1769H1765V793H1766V795H1769V801H1765V809H1760V841H1765V848H1773V876H1794H1838H1863H1875V854H1863V804H1870H1886V782V759Z" fill="#AA4F3B"/>
<path fill-rule="evenodd" clip-rule="evenodd" d="M1539 777H1629V836H1644V855H1635V873H1572V863H1539V855V836V777Z" fill="#AA4F3B"/>
<path fill-rule="evenodd" clip-rule="evenodd" d="M1681 766H1694V787H1742V812H1752V828H1742V850H1686V836H1681H1677V828H1656V787H1681V766Z" fill="#AA4F3B"/>
<path fill-rule="evenodd" clip-rule="evenodd" d="M1614 963H1583V968H1570V977H1551V1066H1570H1623H1647V977H1623V968H1614V963Z" fill="#AA4F3B"/>
<path fill-rule="evenodd" clip-rule="evenodd" d="M1783 964H1861V1016V1018V1035V1054H1846V1035H1837V1018H1807V1035H1798V1054H1783V1035V1018V1016V964Z" fill="#AA4F3B"/>
<path fill-rule="evenodd" clip-rule="evenodd" d="M1962 959H1907V986H1919V1001H1907V1031H1919V1046H1907V1074H1962V1056V1046V1031V1001V986V978V959Z" fill="#AA4F3B"/>
<circle cx="1525.5" cy="942.367" r="30.5" fill="#AA4F3B"/>
</svg>
