<svg className="mobile-map-component" viewBox="0 0 891 967" fill="none" xmlns="http://www.w3.org/2000/svg">
<path d="M0.5 136.5L70.5 8L169 26.5L324.5 3L479 18L508 0L574 89.5V157.5L584.5 168V362.5L624 396L890.5 395V560.5L583.5 552L507.5 967L227 932L189.5 945L137.5 862.5L95.5 814L63.5 738H133.5L150 671L101.5 603.5L78.5 489L10.5 395.5L0.5 136.5Z" fill="#5278FF"/>
<rect x="157" y="757.867" width="354" height="111" fill="#173DC2"/>
<path d="M422 265.367V98.8672H548.5V114.367H565V265.367H422Z" stroke="#173DC2" stroke-width="6"/>
<path d="M453 182.117V113.367H478M453 182.117V250.867H478M453 182.117H532M532 182.117V250.867H478M532 182.117V113.367H506.5M478 113.367V124.867H506.5V113.367M478 113.367H506.5M478 250.867V241.867H506.5V253.367" stroke="#173DC2" stroke-width="6"/>
<path fill-rule="evenodd" clip-rule="evenodd" d="M827 453.867H851V546.867H827V539.867H799V524.867H827V479.867H799V464.867H827V453.867Z" fill="#173DC2"/>
<path fill-rule="evenodd" clip-rule="evenodd" d="M605 432.867H664V453.867H680V467.867H758V489.867H736V519.867H759V535.867H694V525.867V519.867V489.867H680V525.867V550.867H621V525.867H582V453.867H605V432.867Z" fill="#173DC2"/>
<path fill-rule="evenodd" clip-rule="evenodd" d="M399 582.867H478V586.867H499V594.867H504V616.867H499V624.867H478V680.867H501V690.867H504V712.867H501V720.867H408V712.867V690.867H399V582.867Z" fill="#173DC2"/>
<path fill-rule="evenodd" clip-rule="evenodd" d="M546 426.867H485V432.867H417V477.867H485V487.867H546V426.867Z" fill="#173DC2"/>
<rect x="553" y="435.867" width="16" height="11" fill="#173DC2"/>
<path fill-rule="evenodd" clip-rule="evenodd" d="M540 504.867H504V515.867H480V522.867H446V562.867H446.5V575.867L470 562.867H480H493V574.867H515V562.867H540V522.867V515.867V504.867Z" fill="#173DC2"/>
<rect x="423" y="264.867" width="142" height="136" fill="#173DC2"/>
<rect x="565" y="295" width="27" height="87" fill="#173DC2"/>
<path d="M247.5 555.867V467.367C257.616 464.688 260.237 461.026 260.5 451.367H386C387.792 460.274 390.356 463.592 397 467.367V551.867C388.926 553.359 386.635 556.66 386 566.367H260.5C259.623 557.518 256.912 555.179 247.5 555.867Z" fill="#173DC2"/>
<rect x="220" y="589.867" width="45" height="135" fill="#173DC2"/>
<rect x="264" y="580.867" width="123" height="143" stroke="#173DC2" stroke-width="6"/>
<path fill-rule="evenodd" clip-rule="evenodd" d="M232 444.867H194V451.867H189V487.867H210V525.867V538.867V563.867H232H236V538.867H232V525.867H239V487.867V451.867H232V444.867Z" fill="#173DC2"/>
<rect x="81" y="140.867" width="123" height="254" rx="61.5" stroke="#173DC2" stroke-width="6"/>
<rect x="103" y="153.867" width="81" height="224" rx="40.5" stroke="#173DC2" stroke-width="6"/>
<path d="M76.0003 168.867L41.5003 157.867C14.9814 244.37 17.3741 294.523 36.0003 385.367L76.0003 374.367C57.2064 292.787 54.5688 247.602 76.0003 168.867Z" stroke="#173DC2" stroke-width="6"/>
<mask id="path-20-inside-1" fill="white">
<path fill-rule="evenodd" clip-rule="evenodd" d="M621.647 408.867H878V428.867H617.421C612.34 436.692 603.524 441.867 593.5 441.867C583.476 441.867 574.66 436.692 569.579 428.867H207V408.867H565.353C567.511 395.265 579.291 384.867 593.5 384.867C607.709 384.867 619.489 395.265 621.647 408.867Z"/>
</mask>
<path d="M621.647 408.867L615.721 409.807L616.523 414.867H621.647V408.867ZM878 408.867H884V402.867H878V408.867ZM878 428.867V434.867H884V428.867H878ZM617.421 428.867V422.867H614.163L612.388 425.6L617.421 428.867ZM569.579 428.867L574.612 425.6L572.837 422.867H569.579V428.867ZM207 428.867H201V434.867H207V428.867ZM207 408.867V402.867H201V408.867H207ZM565.353 408.867V414.867H570.477L571.279 409.807L565.353 408.867ZM621.647 414.867H878V402.867H621.647V414.867ZM872 408.867V428.867H884V408.867H872ZM878 422.867H617.421V434.867H878V422.867ZM612.388 425.6C608.367 431.792 601.408 435.867 593.5 435.867V447.867C605.641 447.867 616.313 441.591 622.453 432.135L612.388 425.6ZM593.5 435.867C585.592 435.867 578.633 431.792 574.612 425.6L564.547 432.135C570.687 441.591 581.359 447.867 593.5 447.867V435.867ZM569.579 422.867H207V434.867H569.579V422.867ZM213 428.867V408.867H201V428.867H213ZM207 414.867H565.353V402.867H207V414.867ZM571.279 409.807C572.982 399.074 582.288 390.867 593.5 390.867V378.867C576.294 378.867 562.04 391.457 559.427 407.927L571.279 409.807ZM593.5 390.867C604.712 390.867 614.018 399.074 615.721 409.807L627.573 407.927C624.96 391.457 610.706 378.867 593.5 378.867V390.867Z" fill="#173DC2" mask="url(#path-20-inside-1)"/>
<path fill-rule="evenodd" clip-rule="evenodd" d="M115 620.867H207V629.867V639.867V647.867V676.867H146V647.867H119V639.867H115V620.867Z" fill="#173DC2"/>
<rect x="114" y="491.867" width="15" height="33" stroke="#173DC2" stroke-width="4"/>
<rect x="162" y="491.867" width="15" height="33" stroke="#173DC2" stroke-width="4"/>
<rect x="138" y="491.867" width="15" height="33" stroke="#173DC2" stroke-width="4"/>
<rect x="121" y="574.867" width="15" height="33" stroke="#173DC2" stroke-width="4"/>
<rect x="169" y="574.867" width="15" height="33" stroke="#173DC2" stroke-width="4"/>
<rect x="145" y="574.867" width="15" height="33" stroke="#173DC2" stroke-width="4"/>
<path d="M176 484.867V465.867H105.5L92.5 476.367V543.867L104 554.367H159V534.367H107V484.867H176Z" stroke="#173DC2" stroke-width="4"/>
<mask id="path-30-inside-2" fill="white">
<path fill-rule="evenodd" clip-rule="evenodd" d="M193 487.867V491.867V529.867V533.867H189H170V534.867H189H197V529.867V491.867V485.867H185V487.867H189H193ZM201 534.867V538.867H197H189H170H166V534.867V533.867V529.867H170H185H189V525.867V495.867V491.867H185H181V487.867V485.867V481.867H185H197H201V485.867V491.867V529.867V534.867Z"/>
</mask>
<path d="M193 487.867H197V483.867H193V487.867ZM193 533.867V537.867H197V533.867H193ZM170 533.867V529.867H166V533.867H170ZM170 534.867H166V538.867H170V534.867ZM197 534.867V538.867H201V534.867H197ZM197 485.867H201V481.867H197V485.867ZM185 485.867V481.867H181V485.867H185ZM185 487.867H181V491.867H185V487.867ZM201 538.867V542.867H205V538.867H201ZM166 538.867H162V542.867H166V538.867ZM166 529.867V525.867H162V529.867H166ZM189 529.867V533.867H193V529.867H189ZM189 491.867H193V487.867H189V491.867ZM181 491.867H177V495.867H181V491.867ZM181 481.867V477.867H177V481.867H181ZM201 481.867H205V477.867H201V481.867ZM197 491.867V487.867H189V491.867H197ZM197 529.867V491.867H189V529.867H197ZM197 533.867V529.867H189V533.867H197ZM189 537.867H193V529.867H189V537.867ZM170 537.867H189V529.867H170V537.867ZM174 534.867V533.867H166V534.867H174ZM189 530.867H170V538.867H189V530.867ZM197 530.867H189V538.867H197V530.867ZM193 529.867V534.867H201V529.867H193ZM193 491.867V529.867H201V491.867H193ZM193 485.867V491.867H201V485.867H193ZM185 489.867H197V481.867H185V489.867ZM189 487.867V485.867H181V487.867H189ZM189 483.867H185V491.867H189V483.867ZM193 483.867H189V491.867H193V483.867ZM205 538.867V534.867H197V538.867H205ZM197 542.867H201V534.867H197V542.867ZM189 542.867H197V534.867H189V542.867ZM170 542.867H189V534.867H170V542.867ZM166 542.867H170V534.867H166V542.867ZM162 534.867V538.867H170V534.867H162ZM162 533.867V534.867H170V533.867H162ZM162 529.867V533.867H170V529.867H162ZM170 525.867H166V533.867H170V525.867ZM185 525.867H170V533.867H185V525.867ZM189 525.867H185V533.867H189V525.867ZM185 525.867V529.867H193V525.867H185ZM185 495.867V525.867H193V495.867H185ZM185 491.867V495.867H193V491.867H185ZM185 495.867H189V487.867H185V495.867ZM181 495.867H185V487.867H181V495.867ZM177 487.867V491.867H185V487.867H177ZM177 485.867V487.867H185V485.867H177ZM177 481.867V485.867H185V481.867H177ZM185 477.867H181V485.867H185V477.867ZM197 477.867H185V485.867H197V477.867ZM201 477.867H197V485.867H201V477.867ZM205 485.867V481.867H197V485.867H205ZM205 491.867V485.867H197V491.867H205ZM205 529.867V491.867H197V529.867H205ZM205 534.867V529.867H197V534.867H205Z" fill="#173DC2" mask="url(#path-30-inside-2)"/>
<rect x="108" y="568.867" width="89" height="46" stroke="#173DC2" stroke-width="4"/>
<circle cx="303.5" cy="249.367" r="30.5" fill="#173DC2"/>
<path d="M218.817 463.152C220.641 463.44 222.297 464.184 223.785 465.384C225.321 466.584 226.521 468.072 227.385 469.848C228.297 471.624 228.753 473.52 228.753 475.536C228.753 478.08 228.105 480.384 226.809 482.448C225.513 484.464 223.617 486.072 221.121 487.272C218.673 488.424 215.769 489 212.409 489H193.689V438.816H211.689C215.097 438.816 218.001 439.392 220.401 440.544C222.801 441.648 224.601 443.16 225.801 445.08C227.001 447 227.601 449.16 227.601 451.56C227.601 454.536 226.785 457.008 225.153 458.976C223.569 460.896 221.457 462.288 218.817 463.152ZM200.241 460.488H211.257C214.329 460.488 216.705 459.768 218.385 458.328C220.065 456.888 220.905 454.896 220.905 452.352C220.905 449.808 220.065 447.816 218.385 446.376C216.705 444.936 214.281 444.216 211.113 444.216H200.241V460.488ZM211.833 483.6C215.097 483.6 217.641 482.832 219.465 481.296C221.289 479.76 222.201 477.624 222.201 474.888C222.201 472.104 221.241 469.92 219.321 468.336C217.401 466.704 214.833 465.888 211.617 465.888H200.241V483.6H211.833ZM244.397 455.952C245.549 453.696 247.181 451.944 249.293 450.696C251.453 449.448 254.069 448.824 257.141 448.824V455.592H255.413C248.069 455.592 244.397 459.576 244.397 467.544V489H237.845V449.544H244.397V455.952ZM299.696 449.544V489H293.144V483.168C291.896 485.184 290.144 486.768 287.888 487.92C285.68 489.024 283.232 489.576 280.544 489.576C277.472 489.576 274.712 488.952 272.264 487.704C269.816 486.408 267.872 484.488 266.432 481.944C265.04 479.4 264.344 476.304 264.344 472.656V449.544H270.824V471.792C270.824 475.68 271.808 478.68 273.776 480.792C275.744 482.856 278.432 483.888 281.84 483.888C285.344 483.888 288.104 482.808 290.12 480.648C292.136 478.488 293.144 475.344 293.144 471.216V449.544H299.696ZM314.143 443.136C312.895 443.136 311.839 442.704 310.975 441.84C310.111 440.976 309.679 439.92 309.679 438.672C309.679 437.424 310.111 436.368 310.975 435.504C311.839 434.64 312.895 434.208 314.143 434.208C315.343 434.208 316.351 434.64 317.167 435.504C318.031 436.368 318.463 437.424 318.463 438.672C318.463 439.92 318.031 440.976 317.167 441.84C316.351 442.704 315.343 443.136 314.143 443.136ZM317.311 449.544V489H310.759V449.544H317.311ZM347.702 448.824C352.502 448.824 356.39 450.288 359.366 453.216C362.342 456.096 363.83 460.272 363.83 465.744V489H357.35V466.68C357.35 462.744 356.366 459.744 354.398 457.68C352.43 455.568 349.742 454.512 346.334 454.512C342.878 454.512 340.118 455.592 338.054 457.752C336.038 459.912 335.03 463.056 335.03 467.184V489H328.478V449.544H335.03V455.16C336.326 453.144 338.078 451.584 340.286 450.48C342.542 449.376 345.014 448.824 347.702 448.824ZM456.8 438.816L442.256 489H434.912L423.248 448.608L411.152 489L403.88 489.072L389.84 438.816H396.824L407.768 481.368L419.864 438.816H427.208L438.728 481.224L449.744 438.816H456.8ZM461.522 469.128C461.522 465.096 462.338 461.568 463.97 458.544C465.602 455.472 467.834 453.096 470.666 451.416C473.546 449.736 476.738 448.896 480.242 448.896C483.698 448.896 486.698 449.64 489.242 451.128C491.786 452.616 493.682 454.488 494.93 456.744V449.544H501.554V489H494.93V481.656C493.634 483.96 491.69 485.88 489.098 487.416C486.554 488.904 483.578 489.648 480.17 489.648C476.666 489.648 473.498 488.784 470.666 487.056C467.834 485.328 465.602 482.904 463.97 479.784C462.338 476.664 461.522 473.112 461.522 469.128ZM494.93 469.2C494.93 466.224 494.33 463.632 493.13 461.424C491.93 459.216 490.298 457.536 488.234 456.384C486.218 455.184 483.986 454.584 481.538 454.584C479.09 454.584 476.858 455.16 474.842 456.312C472.826 457.464 471.218 459.144 470.018 461.352C468.818 463.56 468.218 466.152 468.218 469.128C468.218 472.152 468.818 474.792 470.018 477.048C471.218 479.256 472.826 480.96 474.842 482.16C476.858 483.312 479.09 483.888 481.538 483.888C483.986 483.888 486.218 483.312 488.234 482.16C490.298 480.96 491.93 479.256 493.13 477.048C494.33 474.792 494.93 472.176 494.93 469.2ZM519.178 435.72V489H512.626V435.72H519.178ZM552.377 489L536.897 471.576V489H530.345V435.72H536.897V467.04L552.089 449.544H561.233L542.657 469.2L561.305 489H552.377Z" fill="white"/>
</svg>
