<svg className="mobile-map-component" viewBox="0 0 885 1216" fill="none" xmlns="http://www.w3.org/2000/svg">
<path d="M240 956.5L56.5 975.5L0 187.5L233 0L645 218L736 390L806 495L736 625.5L745.5 891.5L813 985.5L836.5 1100L885 1166L872.5 1215.5H806L719.5 1163.5L552.5 1076.5L486.5 1000.5L395.5 944L297.5 933L240 956.5Z" fill="#40BAFF"/>
<path d="M287.5 294.867H308.5C307.63 269.694 314.244 260.469 339.5 253.367L332.5 233.367C299.558 240.118 289.12 252.929 287.5 294.867Z" stroke="#1770D9" stroke-width="4"/>
<path d="M269.5 145.869L207 114.369C226.348 63.4879 246.034 57.4474 295 81.8691L269.5 145.869Z" stroke="#1770D9" stroke-width="4"/>
<path d="M238 122.367L250.5 96.8672L273 109.367L264.5 132.867L238 122.367Z" stroke="#1770D9" stroke-width="4"/>
<path d="M209 137.867L214.5 124.867L262.5 151.367H272.5L288 117.367L301.5 121.367L288 157.867L258 165.867L209 137.867Z" stroke="#1770D9" stroke-width="4"/>
<path d="M444 419.867L430.5 394.867L444 387.367L459 413.367L444 419.867Z" fill="#1770D9"/>
<path d="M467.5 433.867L459 417.867L467.5 413.367L477 429.367L467.5 433.867Z" fill="#1770D9"/>
<path d="M438 374.867L430.5 361.867L439.5 357.867L448 370.367L438 374.867Z" fill="#1770D9"/>
<path d="M453 322.367L444 342.867L455.5 346.867L450.5 361.867L470 370.367L473.5 361.867L462 357.867L464.5 352.367L470 354.867L473.5 346.867L494 354.867L507.5 329.367L497 324.867L488 342.867L479.5 338.367V332.867L453 322.367Z" fill="#1770D9"/>
<path d="M161 395.367L132 293.867L151.5 279.867V227.867L194.5 191.867L235.5 227.867L223.5 266.867L251.5 369.367L228 374.367L251.5 445.867L228 451.867L207.5 381.867L161 395.367Z" fill="#1770D9"/>
<path d="M53 416.367L47 334.867L105.5 324.867L94.5 409.867L53 416.367Z" fill="#1770D9"/>
<path d="M297 663.867V562.867V547.867H230C195.658 556.611 183.555 566.606 174.5 593.367L124 591.367V613.367H174.5V604.867C188.479 623.96 199.077 632.07 222.5 642.367L266 663.867H297Z" fill="#1770D9"/>
<path d="M223.5 482.867L197 467.867L189.5 479.867L216 495.867L223.5 482.867Z" fill="#1770D9"/>
<path fill-rule="evenodd" clip-rule="evenodd" d="M179 488.867H191V507.867H186V516.867H200V506.867H218V516.867V525.867V535.867H179V516.867H181V507.867H179V513.867H170V523.867H158V535.867H179V552.867H152V546.867H146V518.867H158V504.867H167V494.867H179V488.867Z" fill="#1770D9"/>
<path d="M530 495.867L515.5 471.867L536.5 463.867L551.5 480.367L579.5 494.367V502.867L598.5 510.867L591 523.367L578 516.367L573.5 523.367L556.5 516.367L559 509.867L530 495.867Z" fill="#1770D9"/>
<path d="M689.5 554.867L647 472.867L718.5 441.367L757.5 520.367L689.5 554.867Z" fill="#1770D9"/>
<path d="M613 449.867L591 427.367L611 415.367L634 443.367V506.867H619.5V511.867H613V500.367H601.5V469.367H613V449.867Z" fill="#1770D9"/>
<path d="M759 1086.37V1035.37H779.5V1041.87H792V1035.37H803V1093.37H792V1118.87H768V1111.37H711V1099.37H717.5V1093.37H779.5V1086.37H759Z" fill="#1770D9"/>
<path fill-rule="evenodd" clip-rule="evenodd" d="M604 999.867H739V1028.87V1033.87V1081.87H711V1100.87H612V1081.87H595V1028.87H604V999.867Z" fill="#1770D9"/>
<path d="M611 933.367H568V958.367H597L604 964.367V997.867H711.5V967.867L749.5 955.867V927.867L711.5 931.867L693.5 952.867H682.5V948.867C663.172 938.347 652.327 937.623 633 948.867V952.867H627L611 933.367Z" fill="#1770D9"/>
<path d="M509.5 986.367V964.367H542.5L586.5 1002.37V1035.87H560V1016.87L528 986.367H509.5Z" fill="#1770D9"/>
<path d="M663 876.867V852.367H678L715.5 894.867H732V921.367H705L663 876.867Z" fill="#1770D9"/>
<path d="M583.5 923.867V894.367H601L635.5 853.867H651.5V874.867L611 923.867H583.5Z" fill="#1770D9"/>
<path d="M468.5 964.867V939.367H487L529 892.867H574.5V921.367H539.5L503 964.867H468.5Z" fill="#1770D9"/>
<path d="M390 889.367L397.5 861.867L449.5 867.367L447.5 874.867L501 871.867L506.5 897.367L437.5 905.867V894.367L390 889.367Z" fill="#1770D9"/>
<path d="M385 890.367H332L327 912.867H371V918.867L436 940.367V918.867L385 902.367V890.367Z" fill="#1770D9"/>
<rect x="618" y="788.867" width="103" height="32" fill="#1770D9"/>
<path d="M616.5 778.367V728.367H640.5V720.867H677.5V679.867H627.5V659.867H640.5V644.867H704V677.867H725V752.867H701V766.367H649L640.5 778.367H616.5Z" fill="#1770D9"/>
<path d="M546 832.367V764.867L555 762.867L546 722.367L566 717.867L576.5 773.367H566V837.367L546 832.367Z" fill="#1770D9"/>
<path fill-rule="evenodd" clip-rule="evenodd" d="M485 590.867H464V606.867H375V633.867H391V639.867H340V660.867H361V668.867H416V660.867H434V633.867H464H469V644.867V654.867V679.867H463V711.867H476V736.867H466V761.867H452V799.867H530V761.867H496V736.867H494V707.867H506V679.867H501V644.867H480V633.867H485V590.867Z" fill="#1770D9"/>
<path fill-rule="evenodd" clip-rule="evenodd" d="M347 674.867H362H442H457V689.867H442V717.867V759.867H404V717.867H347V674.867Z" fill="#1770D9"/>
<path fill-rule="evenodd" clip-rule="evenodd" d="M426 472.867H347V488.867H340V504.867H347H378V559.867H362V598.867H410V559.867H394V504.867H416H426V472.867Z" fill="#1770D9"/>
<path fill-rule="evenodd" clip-rule="evenodd" d="M340 389.867H311V472.867H340V456.867H412V415.867H340V389.867Z" fill="#1770D9"/>
<path fill-rule="evenodd" clip-rule="evenodd" d="M452 530.367L476 515.867L537.893 605.143L548 599.367L562 561.867L570 558.867V554.867L564 552.867L570 532.867L587 538.367L564 605.367L552 603.367L542.555 611.868L558.5 634.867L548 662.867L452 530.367Z" fill="#1770D9"/>
<path d="M563.5 531.367L505 510.367L496 533.367L557.5 552.367L563.5 531.367Z" fill="#1770D9"/>
<path d="M623 596.867L631.5 561.867L701 580.867C712.795 596.947 710.226 604.013 690.5 613.367L623 596.867Z" fill="#1770D9"/>
<path fill-rule="evenodd" clip-rule="evenodd" d="M576 412.867H547V435.867H555V449.867H576V435.867V431.867V412.867Z" fill="#1770D9"/>
<path fill-rule="evenodd" clip-rule="evenodd" d="M207 799.867H144V823.867V855.867H98V936.867H226V904.867V855.867V823.867H207V799.867Z" fill="#1770D9"/>
<path fill-rule="evenodd" clip-rule="evenodd" d="M301 713.867H327V731.867H317V737.867H294V753.867H290V754.867H285V780.867H291V793.867H304V803.867H312H327V796.867H333V783.867H310V788.867H298V783.867V764.867H310H344V778.867H354V796.867V813.867H333H327V808.867H312V816.867H294V808.867V806.867H291H285V794.867H263V751.867H274V739.867H285V731.867H291V719.867H301V713.867Z" fill="#1770D9"/>
<path fill-rule="evenodd" clip-rule="evenodd" d="M350 852.867H332V861.867H293V883.867H340V867.867H350V852.867Z" fill="#1770D9"/>
<path fill-rule="evenodd" clip-rule="evenodd" d="M367 817.867H330V823.867H311V840.867H348V834.867H367V817.867Z" fill="#1770D9"/>
<path fill-rule="evenodd" clip-rule="evenodd" d="M256 803.867H231V820.867H250V825.867H263V834.867H271V843.867H263V844.867H253V835.867H231V852.867H242V861.867H253V868.867H280V860.867H288V843.867H281V834.867H288V817.867H275V808.867H256V803.867Z" fill="#1770D9"/>
<rect x="89" y="637.867" width="87" height="115" stroke="#1770D9" stroke-width="4"/>
<rect x="628.666" y="382.974" width="52.622" height="53.8351" transform="rotate(-25.49 628.666 382.974)" stroke="#1770D9" stroke-width="4"/>
<rect x="568.666" y="357.179" width="90.0768" height="42.6606" transform="rotate(-25.49 568.666 357.179)" stroke="#1770D9" stroke-width="4"/>
<rect x="543.666" y="305.298" width="90.0768" height="42.6606" transform="rotate(-25.49 543.666 305.298)" stroke="#1770D9" stroke-width="4"/>
<rect x="469.666" y="390.298" width="26.6575" height="68.7929" transform="rotate(-25.49 469.666 390.298)" stroke="#1770D9" stroke-width="4"/>
<rect x="235" y="628.867" width="30" height="46" fill="#1770D9"/>
<rect x="201" y="628.867" width="20" height="46" fill="#1770D9"/>
<path fill-rule="evenodd" clip-rule="evenodd" d="M279 492.867H257V505.867H252V499.867H231V514.867H241V520.867H281V505.867H279V492.867Z" fill="#1770D9"/>
<rect x="182" y="405.648" width="23" height="60" transform="rotate(-19.7744 182 405.648)" fill="#1770D9"/>
<path fill-rule="evenodd" clip-rule="evenodd" d="M402 791.867H382V835.867H359V855.867H423V835.867H402V791.867Z" fill="#1770D9"/>
<path fill-rule="evenodd" clip-rule="evenodd" d="M209 731.867H178V759.867H145V797.867H209V784.867V759.867V731.867Z" fill="#1770D9"/>
<rect x="61.9863" y="231.867" width="29" height="85" transform="rotate(14.2941 61.9863 231.867)" fill="#1770D9"/>
<rect x="47.9863" y="164.867" width="21.746" height="32.6415" transform="rotate(14.2941 47.9863 164.867)" fill="#1770D9"/>
<rect x="87.9863" y="177.867" width="21.746" height="32.6415" transform="rotate(42.3411 87.9863 177.867)" fill="#1770D9"/>
<rect x="35.373" y="195.867" width="51.2132" height="10.1545" transform="rotate(31.948 35.373 195.867)" fill="#1770D9"/>
<rect x="412" y="200.867" width="32" height="42" fill="#1770D9"/>
<circle cx="550.5" cy="252.367" r="30.5" fill="#1770D9"/>
<path d="M382.704 549.816V600H376.152V577.248H350.592V600H344.04V549.816H350.592V571.848H376.152V549.816H382.704ZM397.276 554.136C396.028 554.136 394.972 553.704 394.108 552.84C393.244 551.976 392.812 550.92 392.812 549.672C392.812 548.424 393.244 547.368 394.108 546.504C394.972 545.64 396.028 545.208 397.276 545.208C398.476 545.208 399.484 545.64 400.3 546.504C401.164 547.368 401.596 548.424 401.596 549.672C401.596 550.92 401.164 551.976 400.3 552.84C399.484 553.704 398.476 554.136 397.276 554.136ZM400.444 560.544V600H393.892V560.544H400.444ZM418.162 546.72V600H411.61V546.72H418.162ZM435.881 546.72V600H429.329V546.72H435.881Z" fill="white"/>
</svg>
