<svg className="mobile-map-component" viewBox="0 0 906 662" fill="none" xmlns="http://www.w3.org/2000/svg">
<path d="M168 512V523H54H20.5L0 495.5L28.5 450L26.5 383.5L71.5 177L95 53.5L161.5 5.5L237.5 0V93.5L303 211H362L396.5 185L442 65L476 33H707.5L749 288.5L790.5 281.5L851 407L807 421L876 549.5L905.5 662H658.5V457H499V499.5H359L341 512H168Z" fill="#BF8DFF"/>
<path d="M168 512V523H54H20.5L0 495.5L28.5 450L26.5 383.5L71.5 177L95 53.5L161.5 5.5L237.5 0V93.5L303 211H362L396.5 185L442 65L476 33H707.5L749 288.5L790.5 281.5L851 407L807 421L876 549.5L905.5 662H658.5V457H499V499.5H359L341 512H168Z" fill="#BF8DFF"/>
<path d="M779.5 322.867L785 333.867L779.5 336.367L789.5 353.867L783.5 357.367L796.5 378.867L800.5 376.367L808.5 391.367L813.5 388.367L819.5 395.367L826.5 389.867L822 383.367L826.5 380.367L811.5 353.867L817.5 350.367L800.5 319.367L792.5 322.867L789.5 317.867L779.5 322.867Z" fill="#8A38F2"/>
<path fill-rule="evenodd" clip-rule="evenodd" d="M552 48.8672H648V63.8672V90.8672H571V121.867H554V88.8672H559V63.8672H552V48.8672Z" fill="#8A38F2"/>
<rect x="661" y="60.8672" width="28" height="33" fill="#8A38F2"/>
<path fill-rule="evenodd" clip-rule="evenodd" d="M698 114.867H673V128.867V142.867H691V128.867H698V114.867Z" fill="#8A38F2"/>
<path fill-rule="evenodd" clip-rule="evenodd" d="M600 114.867H669V197.867H600H574H552V146.867H574V159.867H600V114.867Z" fill="#8A38F2"/>
<path fill-rule="evenodd" clip-rule="evenodd" d="M471 83.8672H538V124.867H545V138.867H488V163.867H484V178.867H488V201.867H430V178.867H449V163.867V134.867H460V124.867H471V83.8672Z" fill="#8A38F2"/>
<rect x="388" y="241.867" width="114" height="74" fill="#8A38F2"/>
<rect x="331" y="246.867" width="44" height="52" fill="#8A38F2"/>
<path fill-rule="evenodd" clip-rule="evenodd" d="M731 292.867H690V393.867H694V405.867H674V452.867H750V417.867H757V405.867H750H720V393.867H731V292.867Z" fill="#8A38F2"/>
<path fill-rule="evenodd" clip-rule="evenodd" d="M538 338.867H613V345.867H631V372.867V423.867H582V372.867H538H482V345.867H538V338.867Z" fill="#8A38F2"/>
<path fill-rule="evenodd" clip-rule="evenodd" d="M689 550.867H671V644.867H689V636.867H708V632.867H720V618.867H724V592.867H720H708V550.867H689Z" fill="#8A38F2"/>
<path fill-rule="evenodd" clip-rule="evenodd" d="M730 458.867H658V472.867H664V482.867H669V492.867H680V499.867H708V492.867H730V482.867V478.867V472.867V468.867V458.867Z" fill="#8A38F2"/>
<path fill-rule="evenodd" clip-rule="evenodd" d="M825 497.867H712V504.867H702V512.867H694V539.867H715V524.867H754V550.867V572.867H743V582.867V599.867V617.867V627.867H797V637.867H831V644.867H865V637.867V627.867V617.867H862V582.867H857V572.867H855V550.867H840V523.867H817V519.867H825V497.867Z" fill="#8A38F2"/>
<path fill-rule="evenodd" clip-rule="evenodd" d="M328 324.867H370V338.867H396V367.867H383V377.867H304V367.867V338.867H328V324.867Z" fill="#8A38F2"/>
<path fill-rule="evenodd" clip-rule="evenodd" d="M440 388.867H464V461.867H475V479.867H464H444H440H413V450.867H440V388.867Z" fill="#8A38F2"/>
<path fill-rule="evenodd" clip-rule="evenodd" d="M327 391.867H302V470.867H323H327H333V481.867H371V474.867H392V400.867H365V447.867H327V391.867Z" fill="#8A38F2"/>
<path d="M156.5 49.8672V39.8672V39.3672H161.5V40.8672H177V52.8672H174.5V51.3672H158V49.8672H156.5Z" fill="#8A38F2"/>
<path d="M155.5 53.8672V59.8672H153.5V63.8672H155.5V65.3672H170V66.8672H174V63.8672H175.5V56.8672H172.5V55.3672H158V53.8672H155.5Z" fill="#8A38F2"/>
<path d="M152.5 80.3672V69.8672H170V71.3672H174V74.3672H172.5V81.8672H167V80.3672H152.5Z" fill="#8A38F2"/>
<path d="M151 94.3672V84.8672V84.3672H165.5V85.8672H171V95.8672H162.5V94.3672H151Z" fill="#8A38F2"/>
<path d="M118.5 75.8672V67.3672V66.3672H121V67.8672H133.5V69.8672H146V72.8672H145V81.3672H143.5V90.3672H142L142.5 94.3672H133V92.3672H120V90.3672H115.5V85.8672H117V75.8672H118.5Z" fill="#8A38F2"/>
<path d="M123 98.3672L107 94.3672V103.367H99L86.5 172.867H85.5V180.367H89.5V181.867H94V176.367H95.5V173.867H97H106L123 98.3672Z" fill="#8A38F2"/>
<path d="M97 189.867L85.5 185.867L76.5 221.867L137 249.367L150.5 219.867L134 211.867L128 223.867L94 207.867L97 189.867Z" fill="#8A38F2"/>
<path d="M184.5 195.867L169 187.867L152 214.367L169 223.867L167 229.367L182.5 235.367L187 224.867L191 227.367L199.5 207.867L182.5 199.867L184.5 195.867Z" fill="#8A38F2"/>
<path d="M124.5 287.867L123.5 263.367H134V275.867H142V285.867H138.5V287.867H124.5Z" fill="#8A38F2"/>
<path d="M144 275.867V244.367H145V242.867H148V244.367H152.5V245.867H155V247.367H158V248.867H161V250.367H164V251.867H168.5V253.367H170V255.867H168.5V258.867H167V261.867H165.5V263.367H155.5V264.867H152V267.867H154V272.367H162.5V273.367H165.5V285.367H159.5V286.367H155.5V292.367H156.5V293.867H165.5V295.367H167V301.367H168.5V306.867H156.5V311.367H153.5V312.367H146.5V296.867H145.5V275.867H144Z" fill="#8A38F2"/>
<path d="M210 247.367L200.5 236.367L211.9 226.867L221 238.867L210 247.367Z" fill="#8A38F2"/>
<path d="M207.5 250.367L196 240.367L187 251.867L198 260.367L207.5 250.367Z" fill="#8A38F2"/>
<path d="M176.5 273.367L183.5 258.867L198 265.367L190 278.367L176.5 273.367Z" fill="#8A38F2"/>
<path d="M175.5 293.867V278.367L190 280.867V293.867H175.5Z" fill="#8A38F2"/>
<path fill-rule="evenodd" clip-rule="evenodd" d="M172 324.867H141V360.867H148V362.867H154V363.867H159V365.867H165V366.867H172V377.867H219V360.867V324.867H172Z" fill="#8A38F2"/>
<path d="M149 384.867L93 375.367V422.867L149 432.867V384.867Z" fill="#8A38F2"/>
<path d="M214 388.367H159.5L154.5 412.867C171.384 414.868 178.976 419.432 188 435.867H214V388.367Z" fill="#8A38F2"/>
<path d="M246 458.367L190.5 445.367C186.373 458.11 181.403 463.515 166 468.867V501.367H226C238.656 488.935 242.929 479.442 246 458.367Z" fill="#8A38F2"/>
<path d="M139 443.867H110L104 480.867H84C81.6327 466.666 68.3942 464.114 32 465.367L28.5 496.867H43V509.367H66.5C77.394 505.123 81.7186 501.359 86.5 492.367H100L150 503.367L157.5 467.367C146.183 463.472 142.183 458.261 139 443.867Z" fill="#8A38F2"/>
<path fill-rule="evenodd" clip-rule="evenodd" d="M286 278.867H232V359.867H209V434.867H232H286V359.867V278.867Z" fill="#8A38F2"/>
<path d="M212.102 343H205.55L179.198 303.04V343H172.646V292.744H179.198L205.55 332.632V292.744H212.102V343ZM240.479 343.648C236.783 343.648 233.423 342.808 230.399 341.128C227.423 339.448 225.071 337.072 223.343 334C221.663 330.88 220.823 327.28 220.823 323.2C220.823 319.168 221.687 315.616 223.415 312.544C225.191 309.424 227.591 307.048 230.615 305.416C233.639 303.736 237.023 302.896 240.767 302.896C244.511 302.896 247.895 303.736 250.919 305.416C253.943 307.048 256.319 309.4 258.047 312.472C259.823 315.544 260.711 319.12 260.711 323.2C260.711 327.28 259.799 330.88 257.975 334C256.199 337.072 253.775 339.448 250.703 341.128C247.631 342.808 244.223 343.648 240.479 343.648ZM240.479 337.888C242.831 337.888 245.039 337.336 247.103 336.232C249.167 335.128 250.823 333.472 252.071 331.264C253.367 329.056 254.015 326.368 254.015 323.2C254.015 320.032 253.391 317.344 252.143 315.136C250.895 312.928 249.263 311.296 247.247 310.24C245.231 309.136 243.047 308.584 240.695 308.584C238.295 308.584 236.087 309.136 234.071 310.24C232.103 311.296 230.519 312.928 229.319 315.136C228.119 317.344 227.519 320.032 227.519 323.2C227.519 326.416 228.095 329.128 229.247 331.336C230.447 333.544 232.031 335.2 233.999 336.304C235.967 337.36 238.127 337.888 240.479 337.888ZM275.877 309.952C277.029 307.696 278.661 305.944 280.773 304.696C282.933 303.448 285.549 302.824 288.621 302.824V309.592H286.893C279.549 309.592 275.877 313.576 275.877 321.544V343H269.325V303.544H275.877V309.952ZM304.177 308.944V332.2C304.177 334.12 304.585 335.488 305.401 336.304C306.217 337.072 307.633 337.456 309.649 337.456H314.473V343H308.569C304.921 343 302.185 342.16 300.361 340.48C298.537 338.8 297.625 336.04 297.625 332.2V308.944H292.513V303.544H297.625V293.608H304.177V303.544H314.473V308.944H304.177ZM341.995 302.824C344.971 302.824 347.659 303.472 350.059 304.768C352.459 306.016 354.331 307.912 355.675 310.456C357.067 313 357.763 316.096 357.763 319.744V343H351.283V320.68C351.283 316.744 350.299 313.744 348.331 311.68C346.363 309.568 343.675 308.512 340.267 308.512C336.811 308.512 334.051 309.592 331.987 311.752C329.971 313.912 328.963 317.056 328.963 321.184V343H322.411V289.72H328.963V309.16C330.259 307.144 332.035 305.584 334.291 304.48C336.595 303.376 339.163 302.824 341.995 302.824ZM385.213 317.872C385.213 312.976 386.317 308.584 388.525 304.696C390.733 300.76 393.733 297.688 397.525 295.48C401.365 293.272 405.613 292.168 410.269 292.168C415.741 292.168 420.517 293.488 424.597 296.128C428.677 298.768 431.653 302.512 433.525 307.36H425.677C424.285 304.336 422.269 302.008 419.629 300.376C417.037 298.744 413.917 297.928 410.269 297.928C406.765 297.928 403.621 298.744 400.837 300.376C398.053 302.008 395.869 304.336 394.285 307.36C392.701 310.336 391.909 313.84 391.909 317.872C391.909 321.856 392.701 325.36 394.285 328.384C395.869 331.36 398.053 333.664 400.837 335.296C403.621 336.928 406.765 337.744 410.269 337.744C413.917 337.744 417.037 336.952 419.629 335.368C422.269 333.736 424.285 331.408 425.677 328.384H433.525C431.653 333.184 428.677 336.904 424.597 339.544C420.517 342.136 415.741 343.432 410.269 343.432C405.613 343.432 401.365 342.352 397.525 340.192C393.733 337.984 390.733 334.936 388.525 331.048C386.317 327.16 385.213 322.768 385.213 317.872ZM440.83 323.128C440.83 319.096 441.646 315.568 443.278 312.544C444.91 309.472 447.142 307.096 449.974 305.416C452.854 303.736 456.046 302.896 459.55 302.896C463.006 302.896 466.006 303.64 468.55 305.128C471.094 306.616 472.99 308.488 474.238 310.744V303.544H480.862V343H474.238V335.656C472.942 337.96 470.998 339.88 468.406 341.416C465.862 342.904 462.886 343.648 459.478 343.648C455.974 343.648 452.806 342.784 449.974 341.056C447.142 339.328 444.91 336.904 443.278 333.784C441.646 330.664 440.83 327.112 440.83 323.128ZM474.238 323.2C474.238 320.224 473.638 317.632 472.438 315.424C471.238 313.216 469.606 311.536 467.542 310.384C465.526 309.184 463.294 308.584 460.846 308.584C458.398 308.584 456.166 309.16 454.15 310.312C452.134 311.464 450.526 313.144 449.326 315.352C448.126 317.56 447.526 320.152 447.526 323.128C447.526 326.152 448.126 328.792 449.326 331.048C450.526 333.256 452.134 334.96 454.15 336.16C456.166 337.312 458.398 337.888 460.846 337.888C463.294 337.888 465.526 337.312 467.542 336.16C469.606 334.96 471.238 333.256 472.438 331.048C473.638 328.792 474.238 326.176 474.238 323.2ZM539.383 302.824C542.455 302.824 545.191 303.472 547.591 304.768C549.991 306.016 551.887 307.912 553.279 310.456C554.671 313 555.367 316.096 555.367 319.744V343H548.887V320.68C548.887 316.744 547.903 313.744 545.935 311.68C544.015 309.568 541.399 308.512 538.087 308.512C534.679 308.512 531.967 309.616 529.951 311.824C527.935 313.984 526.927 317.128 526.927 321.256V343H520.447V320.68C520.447 316.744 519.463 313.744 517.495 311.68C515.575 309.568 512.959 308.512 509.647 308.512C506.239 308.512 503.527 309.616 501.511 311.824C499.495 313.984 498.487 317.128 498.487 321.256V343H491.935V303.544H498.487V309.232C499.783 307.168 501.511 305.584 503.671 304.48C505.879 303.376 508.303 302.824 510.943 302.824C514.255 302.824 517.183 303.568 519.727 305.056C522.271 306.544 524.167 308.728 525.415 311.608C526.519 308.824 528.343 306.664 530.887 305.128C533.431 303.592 536.263 302.824 539.383 302.824ZM572.666 310.816C573.962 308.56 575.882 306.688 578.426 305.2C581.018 303.664 584.018 302.896 587.426 302.896C590.93 302.896 594.098 303.736 596.93 305.416C599.81 307.096 602.066 309.472 603.698 312.544C605.33 315.568 606.146 319.096 606.146 323.128C606.146 327.112 605.33 330.664 603.698 333.784C602.066 336.904 599.81 339.328 596.93 341.056C594.098 342.784 590.93 343.648 587.426 343.648C584.066 343.648 581.09 342.904 578.498 341.416C575.954 339.88 574.01 337.984 572.666 335.728V361.72H566.114V303.544H572.666V310.816ZM599.45 323.128C599.45 320.152 598.85 317.56 597.65 315.352C596.45 313.144 594.818 311.464 592.754 310.312C590.738 309.16 588.506 308.584 586.058 308.584C583.658 308.584 581.426 309.184 579.362 310.384C577.346 311.536 575.714 313.24 574.466 315.496C573.266 317.704 572.666 320.272 572.666 323.2C572.666 326.176 573.266 328.792 574.466 331.048C575.714 333.256 577.346 334.96 579.362 336.16C581.426 337.312 583.658 337.888 586.058 337.888C588.506 337.888 590.738 337.312 592.754 336.16C594.818 334.96 596.45 333.256 597.65 331.048C598.85 328.792 599.45 326.152 599.45 323.128ZM649.763 303.544V343H643.211V337.168C641.963 339.184 640.211 340.768 637.955 341.92C635.747 343.024 633.299 343.576 630.611 343.576C627.539 343.576 624.779 342.952 622.331 341.704C619.883 340.408 617.939 338.488 616.499 335.944C615.107 333.4 614.411 330.304 614.411 326.656V303.544H620.891V325.792C620.891 329.68 621.875 332.68 623.843 334.792C625.811 336.856 628.499 337.888 631.907 337.888C635.411 337.888 638.171 336.808 640.187 334.648C642.203 332.488 643.211 329.344 643.211 325.216V303.544H649.763ZM674.793 343.648C671.769 343.648 669.057 343.144 666.657 342.136C664.257 341.08 662.361 339.64 660.969 337.816C659.577 335.944 658.809 333.808 658.665 331.408H665.433C665.625 333.376 666.537 334.984 668.169 336.232C669.849 337.48 672.033 338.104 674.721 338.104C677.217 338.104 679.185 337.552 680.625 336.448C682.065 335.344 682.785 333.952 682.785 332.272C682.785 330.544 682.017 329.272 680.481 328.456C678.945 327.592 676.569 326.752 673.353 325.936C670.425 325.168 668.025 324.4 666.153 323.632C664.329 322.816 662.745 321.64 661.401 320.104C660.105 318.52 659.457 316.456 659.457 313.912C659.457 311.896 660.057 310.048 661.257 308.368C662.457 306.688 664.161 305.368 666.369 304.408C668.577 303.4 671.097 302.896 673.929 302.896C678.297 302.896 681.825 304 684.513 306.208C687.201 308.416 688.641 311.44 688.833 315.28H682.281C682.137 313.216 681.297 311.56 679.761 310.312C678.273 309.064 676.257 308.44 673.713 308.44C671.361 308.44 669.489 308.944 668.097 309.952C666.705 310.96 666.009 312.28 666.009 313.912C666.009 315.208 666.417 316.288 667.233 317.152C668.097 317.968 669.153 318.64 670.401 319.168C671.697 319.648 673.473 320.2 675.729 320.824C678.561 321.592 680.865 322.36 682.641 323.128C684.417 323.848 685.929 324.952 687.177 326.44C688.473 327.928 689.145 329.872 689.193 332.272C689.193 334.432 688.593 336.376 687.393 338.104C686.193 339.832 684.489 341.2 682.281 342.208C680.121 343.168 677.625 343.648 674.793 343.648Z" fill="white"/>
</svg>
