<svg className="mobile-map-component" viewBox="0 0 894 554" fill="none" xmlns="http://www.w3.org/2000/svg">
<path d="M333.5 542.5V377.5V364L54.5 365L27 339.5V141L15 131V64H165V53.5H336L352.5 43H497.5V0.5H632V208H893.5L877 331.5L750.5 414L709 464.5V554L333.5 542.5Z" fill="#E19863"/>
<path fill-rule="evenodd" clip-rule="evenodd" d="M614 18.8672H521V28.8672H525V37.8672H516V90.8672H544V55.8672H586V90.8672H618V37.8672H611V28.8672H614V18.8672Z" fill="#AA4F3B"/>
<rect x="512" y="238.867" width="109" height="109" stroke="#AA4F3B" stroke-width="6"/>
<rect x="512" y="238.867" width="109" height="109" stroke="#AA4F3B" stroke-width="6"/>
<rect x="512" y="238.867" width="109" height="109" stroke="#AA4F3B" stroke-width="6"/>
<rect x="512" y="103.867" width="109" height="99" stroke="#AA4F3B" stroke-width="6"/>
<rect x="512" y="103.867" width="109" height="99" stroke="#AA4F3B" stroke-width="6"/>
<rect x="512" y="103.867" width="109" height="99" stroke="#AA4F3B" stroke-width="6"/>
<path fill-rule="evenodd" clip-rule="evenodd" d="M794 267.867H841V293.867H825V312.867V325.867V337.867H790V325.867H700V346.867V369.867H669H660V346.867H669V297.867H657V274.867H700V288.867H794V267.867Z" fill="#AA4F3B"/>
<path d="M884 232.367H854.5L846.5 282.367L854.5 289.867L826.5 342.367L786.5 344.367V328.367H703V376.867H661.5V422.867H724L726 379.867H720V367.367H734V374.367L759.5 372.367V364.367L767.5 367.367L783 358.367L786.5 351.867L801.5 355.867L834 351.867L876 289.867L884 232.367Z" fill="#AA4F3B"/>
<path d="M788 361.867L751.5 385.367L757.5 394.367L795 371.867L788 361.867Z" fill="#AA4F3B"/>
<rect x="659" y="431" width="41" height="116" fill="#AA4F3B"/>
<path fill-rule="evenodd" clip-rule="evenodd" d="M547 356.867H618V413.867H611V419.867V422.867V459.867H622V476.867H604V516.867H589H583H542V501.867V486.867V473.867H557V486.867H583V476.867V464.867H537H506V456.867V437.867V432.867H524V437.867H537V422.867H519V387.867H547V356.867Z" fill="#AA4F3B"/>
<circle cx="505.5" cy="505.367" r="14.5" stroke="#AA4F3B" stroke-width="4"/>
<path fill-rule="evenodd" clip-rule="evenodd" d="M483 403.867H433V483.867H424V460.867V404.867H338V460.867H403V525.867H424H483V490.867V483.867V403.867Z" fill="#AA4F3B"/>
<path fill-rule="evenodd" clip-rule="evenodd" d="M329 464.867H361V488.867H380H400V523.867H380V535.867H340V509.867H329V464.867Z" fill="#AA4F3B"/>
<path fill-rule="evenodd" clip-rule="evenodd" d="M467 51H415V79H437V98H419V101H418V103H413V120H418V123H419V127H437V145H415V168H467V145H463V123V120V103V101V79H467V51Z" fill="#AA4F3B"/>
<path fill-rule="evenodd" clip-rule="evenodd" d="M391 51H375V74H368H299V80H298H286H278H274H270V85H271V87H274V93H270V101H265V133H270V140H278V168H299H343H368H380V146H368V96H375H391V74V51Z" fill="#AA4F3B"/>
<path fill-rule="evenodd" clip-rule="evenodd" d="M44 69H134V128H149V147H140V165H77V155H44V147V128V69Z" fill="#AA4F3B"/>
<path fill-rule="evenodd" clip-rule="evenodd" d="M186 58H199V79H247V104H257V120H247V142H191V128H186H182V120H161V79H186V58Z" fill="#AA4F3B"/>
<path fill-rule="evenodd" clip-rule="evenodd" d="M119 255H88V260H75V269H56V358H75H128H152V269H128V260H119V255Z" fill="#AA4F3B"/>
<path fill-rule="evenodd" clip-rule="evenodd" d="M288 256H366V308V310V327V346H351V327H342V310H312V327H303V346H288V327V310V308V256Z" fill="#AA4F3B"/>
<path fill-rule="evenodd" clip-rule="evenodd" d="M467 251H412V278H424V293H412V323H424V338H412V366H467V348V338V323V293V278V270V251Z" fill="#AA4F3B"/>
<circle cx="30.5" cy="234.367" r="30.5" fill="#AA4F3B"/>
<path d="M144.5 244.367V179.367H154.5L162 203.867H237.5C241.399 194.297 244 193.867 253.5 192.867V182.867H486.5V196.367C486.5 196.367 468.862 198.788 469 208.867C469.051 212.555 468.973 219.973 472 223.867C477.131 230.468 486.5 230.867 486.5 230.867V241.367L253.5 239.867V232.867C243.293 233.329 239.712 230.947 237.5 221.367H162L154.5 244.367H144.5Z" stroke="#AA4F3B" stroke-width="6"/>
<path d="M271.299 191.504C271.299 195.68 269.859 199.16 266.979 201.944C264.147 204.68 259.803 206.048 253.947 206.048H244.299V227H237.747V176.816H253.947C259.611 176.816 263.907 178.184 266.835 180.92C269.811 183.656 271.299 187.184 271.299 191.504ZM253.947 200.648C257.595 200.648 260.283 199.856 262.011 198.272C263.739 196.688 264.603 194.432 264.603 191.504C264.603 185.312 261.051 182.216 253.947 182.216H244.299V200.648H253.947ZM296.65 227.648C292.954 227.648 289.594 226.808 286.57 225.128C283.594 223.448 281.242 221.072 279.514 218C277.834 214.88 276.994 211.28 276.994 207.2C276.994 203.168 277.858 199.616 279.586 196.544C281.362 193.424 283.762 191.048 286.786 189.416C289.81 187.736 293.194 186.896 296.938 186.896C300.682 186.896 304.066 187.736 307.09 189.416C310.114 191.048 312.49 193.4 314.218 196.472C315.994 199.544 316.882 203.12 316.882 207.2C316.882 211.28 315.97 214.88 314.146 218C312.37 221.072 309.946 223.448 306.874 225.128C303.802 226.808 300.394 227.648 296.65 227.648ZM296.65 221.888C299.002 221.888 301.21 221.336 303.274 220.232C305.338 219.128 306.994 217.472 308.242 215.264C309.538 213.056 310.186 210.368 310.186 207.2C310.186 204.032 309.562 201.344 308.314 199.136C307.066 196.928 305.434 195.296 303.418 194.24C301.402 193.136 299.218 192.584 296.866 192.584C294.466 192.584 292.258 193.136 290.242 194.24C288.274 195.296 286.69 196.928 285.49 199.136C284.29 201.344 283.69 204.032 283.69 207.2C283.69 210.416 284.266 213.128 285.418 215.336C286.618 217.544 288.202 219.2 290.17 220.304C292.138 221.36 294.298 221.888 296.65 221.888ZM378.057 187.544L365.745 227H358.977L349.473 195.68L339.969 227H333.201L320.817 187.544H327.513L336.585 220.664L346.377 187.544H353.073L362.649 220.736L371.577 187.544H378.057ZM420.56 205.76C420.56 207.008 420.488 208.328 420.344 209.72H388.808C389.048 213.608 390.368 216.656 392.768 218.864C395.216 221.024 398.168 222.104 401.624 222.104C404.456 222.104 406.808 221.456 408.68 220.16C410.6 218.816 411.944 217.04 412.712 214.832H419.768C418.712 218.624 416.6 221.72 413.432 224.12C410.264 226.472 406.328 227.648 401.624 227.648C397.88 227.648 394.52 226.808 391.544 225.128C388.616 223.448 386.312 221.072 384.632 218C382.952 214.88 382.112 211.28 382.112 207.2C382.112 203.12 382.928 199.544 384.56 196.472C386.192 193.4 388.472 191.048 391.4 189.416C394.376 187.736 397.784 186.896 401.624 186.896C405.368 186.896 408.68 187.712 411.56 189.344C414.44 190.976 416.648 193.232 418.184 196.112C419.768 198.944 420.56 202.16 420.56 205.76ZM413.792 204.392C413.792 201.896 413.24 199.76 412.136 197.984C411.032 196.16 409.52 194.792 407.6 193.88C405.728 192.92 403.64 192.44 401.336 192.44C398.024 192.44 395.192 193.496 392.84 195.608C390.536 197.72 389.216 200.648 388.88 204.392H413.792ZM435.76 173.72V227H429.208V173.72H435.76ZM453.479 173.72V227H446.927V173.72H453.479ZM481.393 201.872C481.393 196.976 482.497 192.584 484.705 188.696C486.913 184.76 489.913 181.688 493.705 179.48C497.545 177.272 501.793 176.168 506.449 176.168C511.921 176.168 516.697 177.488 520.777 180.128C524.857 182.768 527.833 186.512 529.705 191.36H521.857C520.465 188.336 518.449 186.008 515.809 184.376C513.217 182.744 510.097 181.928 506.449 181.928C502.945 181.928 499.801 182.744 497.017 184.376C494.233 186.008 492.049 188.336 490.465 191.36C488.881 194.336 488.089 197.84 488.089 201.872C488.089 205.856 488.881 209.36 490.465 212.384C492.049 215.36 494.233 217.664 497.017 219.296C499.801 220.928 502.945 221.744 506.449 221.744C510.097 221.744 513.217 220.952 515.809 219.368C518.449 217.736 520.465 215.408 521.857 212.384H529.705C527.833 217.184 524.857 220.904 520.777 223.544C516.697 226.136 511.921 227.432 506.449 227.432C501.793 227.432 497.545 226.352 493.705 224.192C489.913 221.984 486.913 218.936 484.705 215.048C482.497 211.16 481.393 206.768 481.393 201.872ZM537.01 207.128C537.01 203.096 537.826 199.568 539.458 196.544C541.09 193.472 543.322 191.096 546.154 189.416C549.034 187.736 552.226 186.896 555.73 186.896C559.186 186.896 562.186 187.64 564.73 189.128C567.274 190.616 569.17 192.488 570.418 194.744V187.544H577.042V227H570.418V219.656C569.122 221.96 567.178 223.88 564.586 225.416C562.042 226.904 559.066 227.648 555.658 227.648C552.154 227.648 548.986 226.784 546.154 225.056C543.322 223.328 541.09 220.904 539.458 217.784C537.826 214.664 537.01 211.112 537.01 207.128ZM570.418 207.2C570.418 204.224 569.818 201.632 568.618 199.424C567.418 197.216 565.786 195.536 563.722 194.384C561.706 193.184 559.474 192.584 557.026 192.584C554.578 192.584 552.346 193.16 550.33 194.312C548.314 195.464 546.706 197.144 545.506 199.352C544.306 201.56 543.706 204.152 543.706 207.128C543.706 210.152 544.306 212.792 545.506 215.048C546.706 217.256 548.314 218.96 550.33 220.16C552.346 221.312 554.578 221.888 557.026 221.888C559.474 221.888 561.706 221.312 563.722 220.16C565.786 218.96 567.418 217.256 568.618 215.048C569.818 212.792 570.418 210.176 570.418 207.2ZM596.106 192.944V216.2C596.106 218.12 596.514 219.488 597.33 220.304C598.146 221.072 599.562 221.456 601.578 221.456H606.402V227H600.498C596.85 227 594.114 226.16 592.29 224.48C590.466 222.8 589.554 220.04 589.554 216.2V192.944H584.442V187.544H589.554V177.608H596.106V187.544H606.402V192.944H596.106ZM309.557 284.816V290.144H295.877V335H289.325V290.144H275.573V284.816H309.557ZM353.622 313.76C353.622 315.008 353.55 316.328 353.406 317.72H321.87C322.11 321.608 323.43 324.656 325.83 326.864C328.278 329.024 331.23 330.104 334.686 330.104C337.518 330.104 339.87 329.456 341.742 328.16C343.662 326.816 345.006 325.04 345.774 322.832H352.83C351.774 326.624 349.662 329.72 346.494 332.12C343.326 334.472 339.39 335.648 334.686 335.648C330.942 335.648 327.582 334.808 324.606 333.128C321.678 331.448 319.374 329.072 317.694 326C316.014 322.88 315.174 319.28 315.174 315.2C315.174 311.12 315.99 307.544 317.622 304.472C319.254 301.4 321.534 299.048 324.462 297.416C327.438 295.736 330.846 294.896 334.686 294.896C338.43 294.896 341.742 295.712 344.622 297.344C347.502 298.976 349.71 301.232 351.246 304.112C352.83 306.944 353.622 310.16 353.622 313.76ZM346.854 312.392C346.854 309.896 346.302 307.76 345.198 305.984C344.094 304.16 342.582 302.792 340.662 301.88C338.79 300.92 336.702 300.44 334.398 300.44C331.086 300.44 328.254 301.496 325.902 303.608C323.598 305.72 322.278 308.648 321.942 312.392H346.854ZM368.823 301.952C369.975 299.696 371.607 297.944 373.719 296.696C375.879 295.448 378.495 294.824 381.567 294.824V301.592H379.839C372.495 301.592 368.823 305.576 368.823 313.544V335H362.271V295.544H368.823V301.952ZM395.682 301.952C396.834 299.696 398.466 297.944 400.578 296.696C402.738 295.448 405.354 294.824 408.426 294.824V301.592H406.698C399.354 301.592 395.682 305.576 395.682 313.544V335H389.13V295.544H395.682V301.952ZM419.373 289.136C418.125 289.136 417.069 288.704 416.205 287.84C415.341 286.976 414.909 285.92 414.909 284.672C414.909 283.424 415.341 282.368 416.205 281.504C417.069 280.64 418.125 280.208 419.373 280.208C420.573 280.208 421.581 280.64 422.397 281.504C423.261 282.368 423.693 283.424 423.693 284.672C423.693 285.92 423.261 286.976 422.397 287.84C421.581 288.704 420.573 289.136 419.373 289.136ZM422.541 295.544V335H415.989V295.544H422.541ZM441.7 300.944V324.2C441.7 326.12 442.108 327.488 442.924 328.304C443.74 329.072 445.156 329.456 447.172 329.456H451.996V335H446.092C442.444 335 439.708 334.16 437.884 332.48C436.06 330.8 435.148 328.04 435.148 324.2V300.944H430.036V295.544H435.148V285.608H441.7V295.544H451.996V300.944H441.7ZM477.143 335.648C473.447 335.648 470.087 334.808 467.063 333.128C464.087 331.448 461.735 329.072 460.007 326C458.327 322.88 457.487 319.28 457.487 315.2C457.487 311.168 458.351 307.616 460.079 304.544C461.855 301.424 464.255 299.048 467.279 297.416C470.303 295.736 473.687 294.896 477.431 294.896C481.175 294.896 484.559 295.736 487.583 297.416C490.607 299.048 492.983 301.4 494.711 304.472C496.487 307.544 497.375 311.12 497.375 315.2C497.375 319.28 496.463 322.88 494.639 326C492.863 329.072 490.439 331.448 487.367 333.128C484.295 334.808 480.887 335.648 477.143 335.648ZM477.143 329.888C479.495 329.888 481.703 329.336 483.767 328.232C485.831 327.128 487.487 325.472 488.735 323.264C490.031 321.056 490.679 318.368 490.679 315.2C490.679 312.032 490.055 309.344 488.807 307.136C487.559 304.928 485.927 303.296 483.911 302.24C481.895 301.136 479.711 300.584 477.359 300.584C474.959 300.584 472.751 301.136 470.735 302.24C468.767 303.296 467.183 304.928 465.983 307.136C464.783 309.344 464.183 312.032 464.183 315.2C464.183 318.416 464.759 321.128 465.911 323.336C467.111 325.544 468.695 327.2 470.663 328.304C472.631 329.36 474.791 329.888 477.143 329.888ZM512.541 301.952C513.693 299.696 515.325 297.944 517.437 296.696C519.597 295.448 522.213 294.824 525.285 294.824V301.592H523.557C516.213 301.592 512.541 305.576 512.541 313.544V335H505.989V295.544H512.541V301.952ZM566.833 295.544L543.073 353.576H536.305L544.081 334.568L528.169 295.544H535.441L547.825 327.512L560.065 295.544H566.833Z" fill="white"/>
</svg>
