<svg className="mobile-map-component" viewBox="0 0 1113 897" fill="none" xmlns="http://www.w3.org/2000/svg">
<path d="M81.5 378.5L48.5 390.5L84 474.5L0 897H679.5L880 824.5L921.5 698L991.5 641.5L1112.5 331L966.5 297.5L984.5 17.5L448 0L371 416.5L81.5 378.5Z" fill="#FFC767"/>
<path d="M831 513.366H818.5C824.661 484.667 835.493 479.559 864.5 484.866L857 497.366C843.72 492.554 837.906 495.634 831 513.366Z" stroke="#D8931F" stroke-width="6"/>
<path d="M998 557.367C990.097 595.211 982.179 615.736 953 649.367C939.264 659.532 930.892 663.838 913.5 667.867C898.093 672.492 892.289 680.175 887.5 703.867C890.526 760.154 884.21 785.87 856 819.367C838.272 809.748 830.992 800.479 826 772.367C821.627 748.273 816.275 736.823 801 720.367L808 497.867C809.403 482.525 812.809 475.701 826 468.367H906C921.226 474.204 926.5 480.715 930.5 497.867C920.199 527.01 916.986 544.253 918 577.367C923.882 594.728 930.617 598.836 948 597.367C967.57 567.54 978.33 558.652 998 557.367Z" stroke="#D8931F" stroke-width="6"/>
<path d="M977 352.867V382.367H970.5V372.867L949.5 365.867L924.5 427.367L918.5 424.367L915 432.367L937.5 442.867L932.5 453.867L945 460.367L942 467.367L955 471.867L966 446.367L955 438.867L970.5 406.867L986.5 410.367L991.5 398.867L1067 406.867L1078 365.867L977 352.867Z" fill="#D8931F"/>
<path d="M962 460.367L999 401.367L1022.5 412.367L1020 416.367L1031 425.367L1047 404.867L1066 416.367L1044 448.367L1049.5 452.367L1039 469.867L1033.5 466.867L1010.5 502.367L992 490.867L999 480.867L986.5 473.367L984 476.867L962 460.367Z" fill="#D8931F"/>
<path d="M971 567.867L928 544.367L964.5 480.867L1006.5 505.867L971 567.867Z" fill="#D8931F"/>
<path d="M452.5 330.867L405 324.867L394.5 404.367L440.5 413.367L452.5 330.867Z" fill="#D8931F"/>
<path fill-rule="evenodd" clip-rule="evenodd" d="M780 24.8672H774V71.8672H796V58.8672H840V66.8672H876V58.8672H892V66.8672H935V58.8672V24.8672H892H876H840H796H780Z" fill="#D8931F"/>
<path fill-rule="evenodd" clip-rule="evenodd" d="M932 74.8672H897V92.8672H886V183.867H859V107.867H820V183.867H794V92.8672H774V183.867V212.867H794H815V226.867H820H830V280.867H855V226.867H859V212.867H886H897V221.867H882V243.867H861V278.867H882V289.867H876V285.867H836V327.867H876V331.867H888V299.867H949V221.867H917V212.867H932H940V183.867H932V92.8672V74.8672Z" fill="#D8931F"/>
<path fill-rule="evenodd" clip-rule="evenodd" d="M631 19.8672H598V33.8672H587V74.8672V183.867H566V132.867V120.867H475V132.867H459V198.867H475H529V199.867H532V210.867H566V199.867H587V212.867V221.867H618V212.867H622V210.867H667H681H705V74.8672H753V33.8672H695V24.8672H670V33.8672H631V19.8672ZM622 74.8672V97.8672H667V74.8672H631H622ZM667 185.867H622V127.867H667V140.867H644V170.867H667V185.867Z" fill="#D8931F"/>
<path fill-rule="evenodd" clip-rule="evenodd" d="M541 4.86719H518V6.86719V32.8672H513V12.8672H490V32.8672V37.8672V93.8672V98.8672V104.867H513V98.8672H518V110.867H541H566V98.8672H576V77.8672H579H584V25.8672H579V11.8672H576V6.86719H566H554H541V4.86719ZM518 93.8672V37.8672H513V93.8672H518ZM488 16.8672H448V73.8672H442V104.867H448H478H488V16.8672Z" fill="#D8931F"/>
<rect x="433" y="228.867" width="168" height="89" fill="#D8931F"/>
<rect x="604" y="228.867" width="107" height="89" fill="#D8931F"/>
<path d="M713.5 217.867V202.867H764V301.367H750.5V307.367H752V328.367H754V344.867H749V341.867H748V328.367H746.5V316.867H745V303.867H743.5V295.367H739.5V293.367H721.5V238.367H723V225.367H719V233.867H709.5V225.867H698V217.867H713.5Z" fill="#D8931F"/>
<path d="M768.5 244.867V222.867H809.5V244.867H803V248.867H809.5V274.867H801.5V278.367H808V289.367H801.5V294.367H809.5V316.867H801.5V325.867H775.5V316.867H768.5V294.367H777V274.867H768.5V248.867H775.5V244.867H768.5Z" fill="#D8931F"/>
<rect x="480" y="329.867" width="46" height="77" fill="#D8931F"/>
<path d="M538 402.367V322.867H656L643 333.867V354.367H598V362.867C585.81 373.212 581.572 381.774 579 402.367H538Z" fill="#D8931F"/>
<path fill-rule="evenodd" clip-rule="evenodd" d="M694 322.867H705H712H725V331.867H728V359.867H725H712V368.867H692V359.867H684V382.867H792V392.867H798V402.867H792H747V437.867H779V482.867H747H745H734H728H719V501.867H803V521.867H773V603.867H752V599.867H718V602.867V603.867V634.867H700V603.867H639H634V615.867H616V603.867H597V615.867H579V603.867H560V618.867H544V589.867H514V567.867H544V521.867H474V535.867V553.867V567.867H502V589.867H491V608.867H408V572.867H439V567.867H440V544.867H393V504.867H444V535.867H456V521.867V497.867H536V469.867V445.867H608V437.867H687V452.867H728V402.867H684H665H664H650V397.867H638V406.867H623V369.867H638V381.867H650V369.867H664V359.867H650V331.867H674V322.867H692H694ZM752 567.867V521.867H719H718V567.867H752ZM700 567.867H639V521.867H700V567.867ZM621 567.867H586H573H560V521.867H608H621V567.867ZM608 497.867H560V469.867H608V482.867V497.867Z" fill="#D8931F"/>
<path d="M928.5 340.867H771V364.867H793L806.5 375.867V405.867H853.5C872.655 402.906 880.353 401.248 896 389.867C919.483 373.771 923.129 362.921 928.5 340.867Z" fill="#D8931F"/>
<path fill-rule="evenodd" clip-rule="evenodd" d="M867 452.867H930V457.867H934V470.867H930V477.867H891V488.867H874V477.867H867V470.867V457.867V452.867Z" fill="#D8931F"/>
<path fill-rule="evenodd" clip-rule="evenodd" d="M734 750.867H716V770.867H688V860.867H716V850.867H719V863.867H751V855.867H758H771V837.867H785H788V815.867H785V807.867H788V785.867H785V777.867H758V755.867H734V750.867Z" fill="#D8931F"/>
<rect x="693" y="654.867" width="28" height="70" fill="#D8931F"/>
<path fill-rule="evenodd" clip-rule="evenodd" d="M794 649.867H775V670.867H727V739.867H783V698.867H794V649.867Z" fill="#D8931F"/>
<path fill-rule="evenodd" clip-rule="evenodd" d="M538 750.867H554H564H580H642H658H668H684V779.867H668V816.867H658V842.867H642V875.867H538V873.867H519H506V863.867H491V830.867H506V807.867H519V784.867H538V750.867Z" fill="#D8931F"/>
<rect x="510" y="596.867" width="29" height="38" fill="#D8931F"/>
<rect x="506" y="664.867" width="37" height="78" fill="#D8931F"/>
<rect x="408" y="745.867" width="71" height="62" fill="#D8931F"/>
<path fill-rule="evenodd" clip-rule="evenodd" d="M393 615.867H457V619.867H496V639.867H511V649.867H496H447H432V645.867H393V615.867Z" fill="#D8931F"/>
<path d="M554.5 742.367V627.867L562.5 621.867H601V633.367H680V621.867H693V652.867H680V742.367H554.5Z" stroke="#D8931F" stroke-width="6"/>
<path fill-rule="evenodd" clip-rule="evenodd" d="M339 444.867H148V492.867V502.867H112V554.867H221V545.867H232V554.867H292V519.867H259V492.867H339V444.867Z" fill="#D8931F"/>
<path fill-rule="evenodd" clip-rule="evenodd" d="M164 577.867H93V654.867H58V783.867H93H129H164V577.867Z" fill="#D8931F"/>
<path fill-rule="evenodd" clip-rule="evenodd" d="M233 592.867H186V596.867H171V727.867H177V763.867H217V736.867H226V681.867H217V615.867H233V592.867Z" fill="#D8931F"/>
<path fill-rule="evenodd" clip-rule="evenodd" d="M327 592.867H248V603.867H241V621.867H282V618.867H300V627.867V679.867V688.867H319V679.867H332V603.867H327V592.867Z" fill="#D8931F"/>
<path fill-rule="evenodd" clip-rule="evenodd" d="M229 773.867H300V809.867H274V843.867H260H219H205V825.867H219V783.867H229V773.867Z" fill="#D8931F"/>
<rect x="105" y="832.867" width="97" height="47" fill="#D8931F"/>
<rect x="232" y="629.867" width="52" height="127" rx="17" stroke="#D8931F" stroke-width="6"/>
<rect x="241" y="640.867" width="33" height="107" rx="16.5" stroke="#D8931F" stroke-width="6"/>
<path d="M377.144 504.504C373.832 504.504 370.856 503.928 368.216 502.776C365.624 501.576 363.584 499.944 362.096 497.88C360.608 495.768 359.84 493.344 359.792 490.608H366.776C367.016 492.96 367.976 494.952 369.656 496.584C371.384 498.168 373.88 498.96 377.144 498.96C380.264 498.96 382.712 498.192 384.488 496.656C386.312 495.072 387.224 493.056 387.224 490.608C387.224 488.688 386.696 487.128 385.64 485.928C384.584 484.728 383.264 483.816 381.68 483.192C380.096 482.568 377.96 481.896 375.272 481.176C371.96 480.312 369.296 479.448 367.28 478.584C365.312 477.72 363.608 476.376 362.168 474.552C360.776 472.68 360.08 470.184 360.08 467.064C360.08 464.328 360.776 461.904 362.168 459.792C363.56 457.68 365.504 456.048 368 454.896C370.544 453.744 373.448 453.168 376.712 453.168C381.416 453.168 385.256 454.344 388.232 456.696C391.256 459.048 392.96 462.168 393.344 466.056H386.144C385.904 464.136 384.896 462.456 383.12 461.016C381.344 459.528 378.992 458.784 376.064 458.784C373.328 458.784 371.096 459.504 369.368 460.944C367.64 462.336 366.776 464.304 366.776 466.848C366.776 468.672 367.28 470.16 368.288 471.312C369.344 472.464 370.616 473.352 372.104 473.976C373.64 474.552 375.776 475.224 378.512 475.992C381.824 476.904 384.488 477.816 386.504 478.728C388.52 479.592 390.248 480.96 391.688 482.832C393.128 484.656 393.848 487.152 393.848 490.32C393.848 492.768 393.2 495.072 391.904 497.232C390.608 499.392 388.688 501.144 386.144 502.488C383.6 503.832 380.6 504.504 377.144 504.504ZM420.697 504.648C417.001 504.648 413.641 503.808 410.617 502.128C407.641 500.448 405.289 498.072 403.561 495C401.881 491.88 401.041 488.28 401.041 484.2C401.041 480.168 401.905 476.616 403.633 473.544C405.409 470.424 407.809 468.048 410.833 466.416C413.857 464.736 417.241 463.896 420.985 463.896C424.729 463.896 428.113 464.736 431.137 466.416C434.161 468.048 436.537 470.4 438.265 473.472C440.041 476.544 440.929 480.12 440.929 484.2C440.929 488.28 440.017 491.88 438.193 495C436.417 498.072 433.993 500.448 430.921 502.128C427.849 503.808 424.441 504.648 420.697 504.648ZM420.697 498.888C423.049 498.888 425.257 498.336 427.321 497.232C429.385 496.128 431.041 494.472 432.289 492.264C433.585 490.056 434.233 487.368 434.233 484.2C434.233 481.032 433.609 478.344 432.361 476.136C431.113 473.928 429.481 472.296 427.465 471.24C425.449 470.136 423.265 469.584 420.913 469.584C418.513 469.584 416.305 470.136 414.289 471.24C412.321 472.296 410.737 473.928 409.537 476.136C408.337 478.344 407.737 481.032 407.737 484.2C407.737 487.416 408.313 490.128 409.465 492.336C410.665 494.544 412.249 496.2 414.217 497.304C416.185 498.36 418.345 498.888 420.697 498.888ZM484.536 464.544V504H477.984V498.168C476.736 500.184 474.984 501.768 472.728 502.92C470.52 504.024 468.072 504.576 465.384 504.576C462.312 504.576 459.552 503.952 457.104 502.704C454.656 501.408 452.712 499.488 451.272 496.944C449.88 494.4 449.184 491.304 449.184 487.656V464.544H455.664V486.792C455.664 490.68 456.648 493.68 458.616 495.792C460.584 497.856 463.272 498.888 466.68 498.888C470.184 498.888 472.944 497.808 474.96 495.648C476.976 493.488 477.984 490.344 477.984 486.216V464.544H484.536ZM503.591 469.944V493.2C503.591 495.12 503.999 496.488 504.815 497.304C505.631 498.072 507.047 498.456 509.063 498.456H513.887V504H507.983C504.335 504 501.599 503.16 499.775 501.48C497.951 499.8 497.039 497.04 497.039 493.2V469.944H491.927V464.544H497.039V454.608H503.591V464.544H513.887V469.944H503.591ZM541.409 463.824C544.385 463.824 547.073 464.472 549.473 465.768C551.873 467.016 553.745 468.912 555.089 471.456C556.481 474 557.177 477.096 557.177 480.744V504H550.697V481.68C550.697 477.744 549.713 474.744 547.745 472.68C545.777 470.568 543.089 469.512 539.681 469.512C536.225 469.512 533.465 470.592 531.401 472.752C529.385 474.912 528.377 478.056 528.377 482.184V504H521.825V450.72H528.377V470.16C529.673 468.144 531.449 466.584 533.705 465.48C536.009 464.376 538.577 463.824 541.409 463.824ZM584.627 478.872C584.627 473.976 585.731 469.584 587.939 465.696C590.147 461.76 593.147 458.688 596.939 456.48C600.779 454.272 605.027 453.168 609.683 453.168C615.155 453.168 619.931 454.488 624.011 457.128C628.091 459.768 631.067 463.512 632.939 468.36H625.091C623.699 465.336 621.683 463.008 619.043 461.376C616.451 459.744 613.331 458.928 609.683 458.928C606.179 458.928 603.035 459.744 600.251 461.376C597.467 463.008 595.283 465.336 593.699 468.36C592.115 471.336 591.323 474.84 591.323 478.872C591.323 482.856 592.115 486.36 593.699 489.384C595.283 492.36 597.467 494.664 600.251 496.296C603.035 497.928 606.179 498.744 609.683 498.744C613.331 498.744 616.451 497.952 619.043 496.368C621.683 494.736 623.699 492.408 625.091 489.384H632.939C631.067 494.184 628.091 497.904 624.011 500.544C619.931 503.136 615.155 504.432 609.683 504.432C605.027 504.432 600.779 503.352 596.939 501.192C593.147 498.984 590.147 495.936 587.939 492.048C585.731 488.16 584.627 483.768 584.627 478.872ZM640.244 484.128C640.244 480.096 641.06 476.568 642.692 473.544C644.324 470.472 646.556 468.096 649.388 466.416C652.268 464.736 655.46 463.896 658.964 463.896C662.42 463.896 665.42 464.64 667.964 466.128C670.508 467.616 672.404 469.488 673.652 471.744V464.544H680.276V504H673.652V496.656C672.356 498.96 670.412 500.88 667.82 502.416C665.276 503.904 662.3 504.648 658.892 504.648C655.388 504.648 652.22 503.784 649.388 502.056C646.556 500.328 644.324 497.904 642.692 494.784C641.06 491.664 640.244 488.112 640.244 484.128ZM673.652 484.2C673.652 481.224 673.052 478.632 671.852 476.424C670.652 474.216 669.02 472.536 666.956 471.384C664.94 470.184 662.708 469.584 660.26 469.584C657.812 469.584 655.58 470.16 653.564 471.312C651.548 472.464 649.94 474.144 648.74 476.352C647.54 478.56 646.94 481.152 646.94 484.128C646.94 487.152 647.54 489.792 648.74 492.048C649.94 494.256 651.548 495.96 653.564 497.16C655.58 498.312 657.812 498.888 660.26 498.888C662.708 498.888 664.94 498.312 666.956 497.16C669.02 495.96 670.652 494.256 671.852 492.048C673.052 489.792 673.652 487.176 673.652 484.2ZM738.797 463.824C741.869 463.824 744.605 464.472 747.005 465.768C749.405 467.016 751.301 468.912 752.693 471.456C754.085 474 754.781 477.096 754.781 480.744V504H748.301V481.68C748.301 477.744 747.317 474.744 745.349 472.68C743.429 470.568 740.813 469.512 737.501 469.512C734.093 469.512 731.381 470.616 729.365 472.824C727.349 474.984 726.341 478.128 726.341 482.256V504H719.861V481.68C719.861 477.744 718.877 474.744 716.909 472.68C714.989 470.568 712.373 469.512 709.061 469.512C705.653 469.512 702.941 470.616 700.925 472.824C698.909 474.984 697.901 478.128 697.901 482.256V504H691.349V464.544H697.901V470.232C699.197 468.168 700.925 466.584 703.085 465.48C705.293 464.376 707.717 463.824 710.357 463.824C713.669 463.824 716.597 464.568 719.141 466.056C721.685 467.544 723.581 469.728 724.829 472.608C725.933 469.824 727.757 467.664 730.301 466.128C732.845 464.592 735.677 463.824 738.797 463.824ZM772.08 471.816C773.376 469.56 775.296 467.688 777.84 466.2C780.432 464.664 783.432 463.896 786.84 463.896C790.344 463.896 793.512 464.736 796.344 466.416C799.224 468.096 801.48 470.472 803.112 473.544C804.744 476.568 805.56 480.096 805.56 484.128C805.56 488.112 804.744 491.664 803.112 494.784C801.48 497.904 799.224 500.328 796.344 502.056C793.512 503.784 790.344 504.648 786.84 504.648C783.48 504.648 780.504 503.904 777.912 502.416C775.368 500.88 773.424 498.984 772.08 496.728V522.72H765.528V464.544H772.08V471.816ZM798.864 484.128C798.864 481.152 798.264 478.56 797.064 476.352C795.864 474.144 794.232 472.464 792.168 471.312C790.152 470.16 787.92 469.584 785.472 469.584C783.072 469.584 780.84 470.184 778.776 471.384C776.76 472.536 775.128 474.24 773.88 476.496C772.68 478.704 772.08 481.272 772.08 484.2C772.08 487.176 772.68 489.792 773.88 492.048C775.128 494.256 776.76 495.96 778.776 497.16C780.84 498.312 783.072 498.888 785.472 498.888C787.92 498.888 790.152 498.312 792.168 497.16C794.232 495.96 795.864 494.256 797.064 492.048C798.264 489.792 798.864 487.152 798.864 484.128ZM849.177 464.544V504H842.625V498.168C841.377 500.184 839.625 501.768 837.369 502.92C835.161 504.024 832.713 504.576 830.025 504.576C826.953 504.576 824.193 503.952 821.745 502.704C819.297 501.408 817.353 499.488 815.913 496.944C814.521 494.4 813.825 491.304 813.825 487.656V464.544H820.305V486.792C820.305 490.68 821.289 493.68 823.257 495.792C825.225 497.856 827.913 498.888 831.321 498.888C834.825 498.888 837.585 497.808 839.601 495.648C841.617 493.488 842.625 490.344 842.625 486.216V464.544H849.177ZM874.207 504.648C871.183 504.648 868.471 504.144 866.071 503.136C863.671 502.08 861.775 500.64 860.383 498.816C858.991 496.944 858.223 494.808 858.079 492.408H864.847C865.039 494.376 865.951 495.984 867.583 497.232C869.263 498.48 871.447 499.104 874.135 499.104C876.631 499.104 878.599 498.552 880.039 497.448C881.479 496.344 882.199 494.952 882.199 493.272C882.199 491.544 881.431 490.272 879.895 489.456C878.359 488.592 875.983 487.752 872.767 486.936C869.839 486.168 867.439 485.4 865.567 484.632C863.743 483.816 862.159 482.64 860.815 481.104C859.519 479.52 858.871 477.456 858.871 474.912C858.871 472.896 859.471 471.048 860.671 469.368C861.871 467.688 863.575 466.368 865.783 465.408C867.991 464.4 870.511 463.896 873.343 463.896C877.711 463.896 881.239 465 883.927 467.208C886.615 469.416 888.055 472.44 888.247 476.28H881.695C881.551 474.216 880.711 472.56 879.175 471.312C877.687 470.064 875.671 469.44 873.127 469.44C870.775 469.44 868.903 469.944 867.511 470.952C866.119 471.96 865.423 473.28 865.423 474.912C865.423 476.208 865.831 477.288 866.647 478.152C867.511 478.968 868.567 479.64 869.815 480.168C871.111 480.648 872.887 481.2 875.143 481.824C877.975 482.592 880.279 483.36 882.055 484.128C883.831 484.848 885.343 485.952 886.591 487.44C887.887 488.928 888.559 490.872 888.607 493.272C888.607 495.432 888.007 497.376 886.807 499.104C885.607 500.832 883.903 502.2 881.695 503.208C879.535 504.168 877.039 504.648 874.207 504.648Z" fill="white"/>
</svg>
